SplineFontDB: 3.0
FontName: CathismaUnicode
FullName: Cathisma Unicode
FamilyName: Cathisma Unicode
Weight: Normal
Copyright: Copyright 2019 Aleksandr Andreev (Slavonic Computing Initiative). Licensed under the SIL OFL. Based on Kathisma UCS Copyright (c) Vladislav V. Dorosh, Calmius Software, 2007-2008. All rights reserved. Licensed as part of CSL TeX under the terms of the LaTeX Project Public License available from CTAN archives in macros/latex/base/lppl.txt. Converted to OpenType and Unicode by Aleksandr Andreev.
Version: 2008.001
ItalicAngle: 0
UnderlinePosition: -60
UnderlineWidth: 10
Ascent: 800
Descent: 200
InvalidEm: 0
LayerCount: 2
Layer: 0 0 "Back" 1
Layer: 1 0 "Fore" 0
UniqueID: 4777062
FSType: 0
OS2Version: 0
OS2_WeightWidthSlopeOnly: 0
OS2_UseTypoMetrics: 0
CreationTime: 1291789194
ModificationTime: 1556705100
PfmFamily: 17
TTFWeight: 400
TTFWidth: 5
LineGap: 90
VLineGap: 0
OS2TypoAscent: 0
OS2TypoAOffset: 1
OS2TypoDescent: 0
OS2TypoDOffset: 1
OS2TypoLinegap: 90
OS2WinAscent: 0
OS2WinAOffset: 1
OS2WinDescent: 0
OS2WinDOffset: 1
HheadAscent: 0
HheadAOffset: 1
HheadDescent: 0
HheadDOffset: 1
OS2Vendor: 'PfEd'
MarkAttachClasses: 1
DEI: 91125

StartChar: .notdef
Encoding: 1114112 -1 0
Width: 360
LayerCount: 2
Fore
SplineSet
310 0 m 1
 50 0 l 1
 50 800 l 1
 310 800 l 1
 310 0 l 1
190 401 m 1
 290 40 l 1
 290 762 l 1
 190 401 l 1
169 401 m 1
 70 762 l 1
 70 40 l 1
 169 401 l 1
180 362 m 1
 86 20 l 1
 274 20 l 1
 180 362 l 1
86 780 m 1
 180 440 l 1
 273 780 l 1
 86 780 l 1
EndSplineSet
EndChar

StartChar: exclam
Encoding: 33 33 2
Width: 129
Flags: W
LayerCount: 2
Fore
SplineSet
95 67 m 0
 95 105 82 135 62 135 c 0
 43 135 29 105 29 67 c 0
 29 30 43 0 62 0 c 0
 82 0 95 30 95 67 c 0
53 198 m 1
 71 198 l 1
 94 800 l 1
 90 807 75 812 62 812 c 0
 49 812 37 807 30 800 c 1
 53 198 l 1
EndSplineSet
EndChar

StartChar: quotedbl
Encoding: 34 34 3
Width: 222
Flags: W
LayerCount: 2
Fore
SplineSet
202 793 m 1
 136 576 l 1
 100 576 l 1
 100 583 l 1
 150 800 l 1
 202 800 l 1
 202 793 l 1
122 793 m 1
 56 576 l 1
 20 576 l 1
 20 583 l 1
 70 800 l 1
 122 800 l 1
 122 793 l 1
EndSplineSet
EndChar

StartChar: uni0486
Encoding: 1158 1158 4
Width: 1
Flags: W
LayerCount: 2
Fore
SplineSet
-116 852 m 1
 -107 846 l 1
 -93 856 -81 870 -81 892 c 0
 -81 919 -97 944 -135 944 c 0
 -167 944 -186 918 -186 894 c 0
 -186 871 -174 853 -159 844 c 1
 -152 850 l 1
 -153 855 -162 867 -162 880 c 0
 -162 900 -153 913 -132 913 c 0
 -113 913 -103 902 -103 880 c 0
 -103 869 -108 859 -116 852 c 1
EndSplineSet
EndChar

StartChar: uniE002
Encoding: 57346 57346 5
Width: 1
GlyphClass: 4
Flags: W
LayerCount: 2
Fore
SplineSet
-143 847 m 1
 -136 854 -135 868 -135 880 c 0
 -135 893 -143 911 -161 911 c 0
 -178 911 -186 893 -186 879 c 0
 -186 866 -179 851 -176 845 c 1
 -186 841 l 1
 -197 849 -209 870 -209 890 c 0
 -209 915 -192 944 -163 944 c 0
 -127 944 -113 916 -113 890 c 0
 -113 868 -123 853 -134 841 c 1
 -143 847 l 1
-80 841 m 1
 -100 841 l 1
 -100 846 l 1
 -79 960 l 1
 -58 960 l 1
 -58 954 l 1
 -80 841 l 1
EndSplineSet
EndChar

StartChar: uniE004
Encoding: 57348 57348 6
Width: 1
GlyphClass: 4
Flags: W
LayerCount: 2
Fore
SplineSet
-48 841 m 1
 -48 846 l 1
 -84 960 l 1
 -105 960 l 1
 -105 954 l 1
 -68 841 l 1
 -48 841 l 1
-113 890 m 0
 -113 916 -127 944 -163 944 c 0
 -192 944 -209 915 -209 890 c 0
 -209 870 -197 849 -186 841 c 1
 -176 845 l 1
 -179 851 -186 866 -186 879 c 0
 -186 893 -178 911 -161 911 c 0
 -143 911 -135 893 -135 880 c 0
 -135 868 -136 854 -143 847 c 1
 -134 841 l 1
 -123 853 -113 868 -113 890 c 0
EndSplineSet
EndChar

StartChar: uni0483
Encoding: 1155 1155 7
Width: 1
Flags: W
LayerCount: 2
Fore
SplineSet
-29 878 m 1
 -49 882 l 1
 -49 946 l 1
 -114 946 l 1
 -114 896 l 1
 -259 928 l 1
 -261 918 l 1
 -240 913 l 1
 -240 849 l 1
 -175 849 l 1
 -175 899 l 1
 -31 868 l 1
 -29 878 l 1
EndSplineSet
EndChar

StartChar: quotesingle
Encoding: 39 39 8
Width: 132
Flags: W
LayerCount: 2
Fore
SplineSet
112 793 m 1
 46 576 l 1
 20 576 l 1
 20 583 l 1
 70 800 l 1
 112 800 l 1
 112 793 l 1
EndSplineSet
EndChar

StartChar: parenleft
Encoding: 40 40 9
Width: 175
Flags: W
LayerCount: 2
Fore
SplineSet
132 832 m 2
 169 832 l 1
 169 842 l 1
 132 842 l 2
 85 842 45 804 45 757 c 2
 45 43 l 2
 45 -4 85 -42 132 -42 c 2
 169 -42 l 1
 169 -32 l 1
 132 -32 l 2
 122 -32 110 -28 110 -17 c 2
 110 817 l 2
 110 828 122 832 132 832 c 2
EndSplineSet
EndChar

StartChar: parenright
Encoding: 41 41 10
Width: 175
Flags: W
LayerCount: 2
Fore
SplineSet
130 43 m 2
 130 757 l 2
 130 805 90 842 43 842 c 2
 6 842 l 1
 6 832 l 1
 43 832 l 2
 53 832 65 828 65 817 c 2
 65 -17 l 2
 65 -28 53 -32 43 -32 c 2
 6 -32 l 1
 6 -42 l 1
 43 -42 l 2
 90 -42 130 -4 130 43 c 2
EndSplineSet
EndChar

StartChar: asterisk
Encoding: 42 42 11
Width: 249
Flags: W
LayerCount: 2
Fore
SplineSet
235 702 m 1
 175 723 l 1
 204 780 l 1
 146 752 l 1
 124 812 l 1
 103 752 l 1
 45 780 l 1
 72 723 l 1
 13 702 l 1
 73 680 l 1
 46 622 l 1
 103 650 l 1
 124 590 l 1
 146 650 l 1
 204 622 l 1
 175 680 l 1
 235 702 l 1
206 702 m 1
 162 685 l 1
 183 643 l 1
 140 663 l 1
 124 620 l 1
 108 663 l 1
 66 643 l 1
 87 685 l 1
 43 702 l 1
 86 717 l 1
 66 759 l 1
 108 739 l 1
 124 783 l 1
 140 740 l 1
 183 760 l 1
 162 717 l 1
 206 702 l 1
EndSplineSet
EndChar

StartChar: uni2DE1
Encoding: 11745 11745 12
Width: 1
Flags: HW
LayerCount: 2
Fore
SplineSet
-74 840 m 2
 -176 840 l 2
 -182 840 -182 852 -176 852 c 2
 -172 852 l 1
 -170 858 -169 873 -168 885 c 0
 -167 897 -167 913 -167 921 c 1
 -174 921 l 2
 -180 921 -181 933 -174 933 c 2
 -89 933 l 2
 -83 933 -83 921 -89 921 c 2
 -95 921 l 1
 -95 913 -95 897 -92 882 c 0
 -91 870 -87 858 -86 852 c 1
 -74 852 l 2
 -70 852 -69 840 -74 840 c 2
-121 852 m 1
 -122 858 -124 869 -124 878 c 0
 -124 894 -125 913 -125 921 c 1
 -136 921 l 1
 -136 913 -136 896 -137 882 c 0
 -137 873 -137 857 -137 852 c 1
 -121 852 l 1
EndSplineSet
EndChar

StartChar: comma
Encoding: 44 44 13
Width: 129
Flags: W
LayerCount: 2
Fore
SplineSet
8 69 m 0
 8 36 36 21 51 -13 c 1
 48 -55 45 -75 9 -114 c 0
 11 -117 13 -120 17 -120 c 0
 62 -78 96 -23 96 45 c 0
 96 80 84 119 42 119 c 0
 20 119 8 91 8 69 c 0
EndSplineSet
EndChar

StartChar: hyphen
Encoding: 45 45 14
Width: 215
Flags: W
LayerCount: 2
Fore
SplineSet
190 380 m 1
 25 380 l 1
 25 420 l 1
 190 420 l 1
 190 380 l 1
EndSplineSet
EndChar

StartChar: period
Encoding: 46 46 15
Width: 129
Flags: W
LayerCount: 2
Fore
SplineSet
18 77 m 0
 18 28 36 -12 62 -12 c 0
 88 -12 106 28 106 77 c 0
 106 126 88 166 62 166 c 0
 36 166 18 126 18 77 c 0
EndSplineSet
EndChar

StartChar: slash
Encoding: 47 47 16
Width: 266
Flags: W
LayerCount: 2
Fore
SplineSet
239 850 m 1
 76 -50 l 1
 27 -50 l 1
 190 850 l 1
 239 850 l 1
EndSplineSet
EndChar

StartChar: acutecomb
Encoding: 769 769 17
Width: 1
Flags: W
LayerCount: 2
Fore
SplineSet
-73 944 m 1
 -90 952 l 1
 -148 846 l 1
 -131 838 l 1
 -73 944 l 1
EndSplineSet
EndChar

StartChar: gravecomb
Encoding: 768 768 18
Width: 1
Flags: W
LayerCount: 2
Fore
SplineSet
-194 930 m 1
 -194 909 l 1
 -69 859 l 1
 -69 880 l 1
 -194 930 l 1
EndSplineSet
EndChar

StartChar: uniE000
Encoding: 57344 57344 19
Width: 1
GlyphClass: 4
Flags: W
LayerCount: 2
Fore
SplineSet
-116 852 m 1
 -107 846 l 1
 -93 856 -81 870 -81 892 c 0
 -81 919 -97 944 -135 944 c 0
 -167 944 -186 918 -186 894 c 0
 -186 871 -174 853 -159 844 c 1
 -152 850 l 1
 -153 855 -162 867 -162 880 c 0
 -162 900 -153 913 -132 913 c 0
 -113 913 -103 902 -103 880 c 0
 -103 869 -108 859 -116 852 c 1
EndSplineSet
EndChar

StartChar: uni0311
Encoding: 785 785 20
Width: 1
Flags: W
LayerCount: 2
Fore
SplineSet
-71 854 m 2
 -71 890 -99 919 -136 919 c 0
 -173 919 -201 890 -201 854 c 2
 -201 839 l 1
 -182 839 l 1
 -182 854 l 2
 -182 879 -161 900 -136 900 c 0
 -111 900 -90 879 -90 854 c 2
 -90 839 l 1
 -71 839 l 1
 -71 854 l 2
EndSplineSet
EndChar

StartChar: uni033E
Encoding: 830 830 21
Width: 1
Flags: W
LayerCount: 2
Fore
SplineSet
-53 878 m 1
 -72 944 l 1
 -43 960 l 1
 -49 971 l 1
 -113 938 l 1
 -93 870 l 1
 -126 854 l 1
 -120 843 l 1
 -53 878 l 1
EndSplineSet
EndChar

StartChar: colon
Encoding: 58 58 22
Width: 129
Flags: W
LayerCount: 2
Fore
SplineSet
18 177 m 0
 18 128 36 88 62 88 c 0
 88 88 106 128 106 177 c 0
 106 226 88 266 62 266 c 0
 36 266 18 226 18 177 c 0
18 557 m 0
 18 508 36 468 62 468 c 0
 88 468 106 508 106 557 c 0
 106 606 88 646 62 646 c 0
 36 646 18 606 18 557 c 0
EndSplineSet
EndChar

StartChar: semicolon
Encoding: 59 59 23
Width: 129
Flags: W
LayerCount: 2
Fore
SplineSet
18 159 m 0
 18 126 46 111 61 77 c 1
 58 35 55 15 19 -24 c 0
 21 -27 23 -30 27 -30 c 0
 72 12 106 67 106 135 c 0
 106 170 94 209 52 209 c 0
 30 209 18 181 18 159 c 0
18 507 m 0
 18 458 36 418 62 418 c 0
 88 418 106 458 106 507 c 0
 106 556 88 596 62 596 c 0
 36 596 18 556 18 507 c 0
EndSplineSet
EndChar

StartChar: uni2DEF
Encoding: 11759 11759 24
Width: 1
Flags: W
LayerCount: 2
Fore
SplineSet
-117 863 m 0
 -130 877 -141 889 -157 901 c 1
 -180 884 -203 865 -218 853 c 1
 -243 853 l 2
 -245 854 -245 858 -244 858 c 0
 -220 876 -198 892 -171 911 c 1
 -190 927 -214 947 -232 958 c 1
 -240 958 -259 961 -266 962 c 0
 -268 962 -270 961 -270 959 c 0
 -269 950 -269 944 -271 934 c 0
 -273 923 -274 915 -278 909 c 1
 -289 906 -305 904 -316 904 c 0
 -317 904 -317 906 -317 907 c 0
 -309 927 -302 954 -294 974 c 0
 -293 976 -289 978 -285 978 c 0
 -253 976 -215 978 -182 979 c 0
 -180 979 -177 978 -176 978 c 0
 -160 964 -147 953 -132 939 c 1
 -116 952 -100 964 -86 974 c 0
 -69 985 -46 990 -18 992 c 0
 0 992 14 990 22 987 c 0
 23 986 26 984 24 982 c 0
 16 975 6 970 1 961 c 0
 -5 951 -7 941 -8 930 c 0
 -8 929 -12 927 -13 929 c 0
 -25 937 -47 949 -61 953 c 0
 -62 954 -68 954 -70 953 c 0
 -83 948 -100 937 -119 926 c 1
 -94 903 -66 879 -39 856 c 0
 -37 855 -37 853 -40 853 c 2
 -97 853 l 2
 -106 854 -112 858 -117 863 c 0
EndSplineSet
EndChar

StartChar: uni2DE9
Encoding: 11753 11753 25
Width: 1
Flags: HW
LayerCount: 2
Fore
SplineSet
-177 926 m 1
 -177 840 l 1
 -142 840 l 1
 -142 878 l 1
 -117 878 l 1
 -117 840 l 1
 -85 840 l 1
 -85 927 l 1
 -117 927 l 1
 -117 893 l 1
 -142 893 l 1
 -142 926 l 1
 -177 926 l 1
EndSplineSet
EndChar

StartChar: uni2DEC
Encoding: 11756 11756 26
Width: 1
Flags: HW
LayerCount: 2
Fore
SplineSet
-231 838 m 2
 -229 843 -228 847 -228 857 c 0
 -228 872 -228 888 -228 899 c 0
 -228 914 -202 933 -177 933 c 0
 -153 933 -127 917 -127 900 c 0
 -127 884 -141 875 -168 875 c 0
 -174 875 -190 877 -195 882 c 1
 -195 852 l 2
 -195 843 -231 838 -231 838 c 2
-193 903 m 0
 -193 897 -187 887 -177 887 c 0
 -168 887 -159 894 -159 904 c 0
 -159 911 -166 920 -177 920 c 0
 -189 920 -193 912 -193 903 c 0
EndSplineSet
EndChar

StartChar: uni2DF1
Encoding: 11761 11761 27
Width: 1
Flags: HW
LayerCount: 2
Fore
SplineSet
-185 926 m 1
 -185 899 -170 888 -154 882 c 0
 -136 875 -125 876 -125 876 c 1
 -125 840 l 1
 -92 840 l 1
 -92 927 l 1
 -125 927 l 1
 -125 893 l 1
 -125 893 -136 891 -143 897 c 0
 -149 903 -151 917 -149 926 c 1
 -185 926 l 1
EndSplineSet
EndChar

StartChar: uni2DED
Encoding: 11757 11757 28
Width: 1
Flags: HW
LayerCount: 2
Fore
SplineSet
-137 857 m 1
 -137 866 -139 876 -139 888 c 0
 -139 905 -132 915 -111 912 c 1
 -111 917 -111 926 -111 929 c 1
 -112 929 -123 931 -128 930 c 0
 -145 929 -171 919 -171 896 c 0
 -171 882 -167 871 -167 857 c 0
 -167 852 -167 846 -167 842 c 0
 -167 839 -167 837 -164 837 c 0
 -157 837 -145 837 -136 838 c 0
 -126 840 -113 846 -109 854 c 0
 -108 854 -111 865 -114 864 c 0
 -122 858 -127 856 -137 857 c 1
EndSplineSet
EndChar

StartChar: uni0400
Encoding: 1024 1024 29
Width: 245
Flags: W
LayerCount: 2
Fore
SplineSet
107 491 m 2
 100 480 l 1
 100 787 l 2
 100 798 111 803 122 803 c 0
 134 803 145 798 145 787 c 2
 145 595 l 1
 115 595 l 1
 115 585 l 1
 240 585 l 1
 240 595 l 1
 210 595 l 1
 210 727 l 2
 210 774 169 812 122 812 c 0
 74 812 35 774 35 727 c 2
 35 287 l 2
 35 250 44 228 57 205 c 0
 71 178 104 149 127 109 c 0
 137 91 140 73 142 55 c 0
 141 46 136 24 122 8 c 0
 114 2 105 -2 96 -2 c 0
 90 -2 84 0 78 3 c 0
 74 9 73 12 73 18 c 0
 73 34 80 47 88 61 c 0
 99 79 103 91 103 106 c 0
 103 121 97 138 78 138 c 0
 44 138 30 102 30 76 c 0
 30 39 59 -12 96 -12 c 0
 142 -12 172 60 188 114 c 0
 211 196 213 294 214 345 c 1
 240 345 l 1
 240 355 l 1
 115 355 l 1
 115 345 l 1
 145 345 l 1
 145 93 l 2
 143 100 140 107 136 115 c 0
 129 128 125 140 118 156 c 0
 106 184 100 218 100 260 c 2
 100 460 l 1
 110 476 l 2
 115 484 124 494 131 494 c 0
 142 494 145 485 145 474 c 2
 145 435 l 1
 212 435 l 1
 212 458 l 2
 212 505 181 519 160 519 c 0
 141 519 122 512 107 491 c 2
65 930 m 1
 65 909 l 1
 190 859 l 1
 190 880 l 1
 65 930 l 1
EndSplineSet
EndChar

StartChar: uni0472
Encoding: 1138 1138 30
Width: 355
Flags: W
LayerCount: 2
Fore
SplineSet
346 2 m 0
 343 10 339 19 337 30 c 0
 327 78 326 104 326 152 c 0
 326 188 334 235 338 257 c 0
 339 261 339 264 338 267 c 2
 265 267 l 1
 265 727 l 2
 265 774 224 812 177 812 c 0
 129 812 90 774 90 727 c 2
 90 267 l 1
 17 267 l 2
 16 264 16 261 17 257 c 0
 21 235 29 188 29 152 c 0
 29 104 28 78 18 30 c 0
 16 19 12 10 9 2 c 0
 8 -1 15 -4 16 -1 c 0
 18 4 25 17 29 28 c 0
 48 77 57 98 69 150 c 0
 77 186 82 236 83 257 c 1
 90 257 l 1
 90 73 l 2
 90 26 129 -12 177 -12 c 0
 224 -12 265 26 265 73 c 2
 265 257 l 1
 272 257 l 1
 272 236 277 186 286 150 c 0
 298 98 307 77 326 28 c 0
 330 17 337 4 339 -1 c 0
 340 -4 347 -1 346 2 c 0
155 787 m 2
 155 798 166 803 177 803 c 0
 189 803 200 798 200 787 c 2
 200 267 l 1
 155 267 l 1
 155 787 l 2
177 -3 m 0
 166 -3 155 2 155 13 c 2
 155 257 l 1
 200 257 l 1
 200 13 l 2
 200 2 189 -3 177 -3 c 0
EndSplineSet
EndChar

StartChar: uni0406
Encoding: 1030 1030 31
Width: 135
Flags: W
LayerCount: 2
Fore
SplineSet
130 0 m 1
 130 10 l 1
 100 10 l 1
 100 790 l 1
 130 790 l 1
 130 800 l 1
 5 800 l 1
 5 790 l 1
 35 790 l 1
 35 10 l 1
 5 10 l 1
 5 0 l 1
 130 0 l 1
EndSplineSet
EndChar

StartChar: uni0476
Encoding: 1142 1142 32
Width: 236
Flags: W
LayerCount: 2
Fore
SplineSet
29 0 m 1
 154 0 l 1
 154 10 l 1
 125 10 l 1
 124 51 l 1
 152 644 l 2
 156 721 175 741 194 741 c 2
 224 741 l 1
 224 806 l 1
 198 806 l 2
 161 806 147 763 145 715 c 2
 119 172 l 1
 97 790 l 1
 130 790 l 1
 130 800 l 1
 5 800 l 1
 5 790 l 1
 32 790 l 1
 60 10 l 1
 29 10 l 1
 29 0 l 1
187 870 m 1
 141 947 l 1
 100 947 l 1
 100 941 l 1
 146 864 l 1
 187 864 l 1
 187 870 l 1
91 870 m 1
 45 947 l 1
 4 947 l 1
 4 941 l 1
 50 864 l 1
 91 864 l 1
 91 870 l 1
EndSplineSet
EndChar

StartChar: uni047A
Encoding: 1146 1146 33
Width: 325
Flags: W
LayerCount: 2
Fore
SplineSet
122 812 m 0
 74 812 35 774 35 727 c 2
 35 73 l 2
 35 26 74 -12 122 -12 c 0
 130 -12 138 -10 146 -8 c 0
 150 -10 156 -12 162 -12 c 0
 168 -12 174 -10 178 -8 c 0
 186 -11 195 -12 203 -12 c 0
 251 -12 290 26 290 73 c 2
 290 727 l 2
 290 774 251 812 203 812 c 0
 195 812 186 811 178 808 c 0
 174 810 168 812 162 812 c 0
 155 812 150 810 145 808 c 0
 138 810 129 812 122 812 c 0
162 66 m 0
 139 66 128 46 128 27 c 0
 128 17 131 6 138 -1 c 1
 132 -2 127 -3 122 -3 c 0
 111 -3 100 2 100 13 c 2
 100 787 l 2
 100 798 111 803 122 803 c 0
 127 803 132 802 137 801 c 1
 131 794 128 783 128 773 c 0
 128 754 140 734 162 734 c 0
 184 734 196 754 196 773 c 0
 196 782 193 792 187 800 c 1
 193 802 199 803 203 803 c 0
 214 803 225 798 225 787 c 2
 225 13 l 2
 225 2 214 -3 203 -3 c 0
 197 -3 191 -2 186 -1 c 1
 192 6 196 17 196 27 c 0
 196 46 184 66 162 66 c 0
EndSplineSet
EndChar

StartChar: uni0470
Encoding: 1136 1136 34
Width: 355
Flags: W
LayerCount: 2
Fore
SplineSet
332 730 m 0
 332 767 309 803 279 803 c 0
 258 803 245 785 237 765 c 0
 220 718 219 676 219 645 c 0
 219 603 224 570 242 527 c 0
 246 517 251 508 255 500 c 1
 255 115 l 2
 255 104 244 100 233 100 c 2
 210 100 l 1
 210 790 l 1
 240 790 l 1
 240 800 l 1
 115 800 l 1
 115 790 l 1
 145 790 l 1
 145 100 l 1
 122 100 l 2
 111 100 100 104 100 115 c 2
 100 500 l 1
 104 508 109 517 113 527 c 0
 131 570 136 603 136 645 c 0
 136 676 135 718 118 765 c 0
 110 785 97 803 76 803 c 0
 46 803 23 767 23 730 c 0
 23 707 25 693 32 673 c 0
 38 657 49 628 54 616 c 0
 62 598 64 591 64 571 c 0
 64 552 60 531 54 523 c 0
 52 520 35 496 35 496 c 2
 31 490 39 484 43 490 c 2
 43 490 60 514 62 517 c 0
 68 527 81 546 90 566 c 0
 101 591 106 610 106 639 c 0
 106 662 102 674 94 696 c 0
 87 716 82 721 73 741 c 0
 68 751 64 761 64 773 c 0
 64 783 66 793 79 793 c 0
 91 793 102 777 108 761 c 0
 125 716 126 676 126 645 c 0
 126 604 121 572 103 531 c 0
 86 491 64 463 35 438 c 1
 35 175 l 2
 35 128 75 90 122 90 c 2
 145 90 l 1
 145 10 l 1
 115 10 l 1
 115 0 l 1
 240 0 l 1
 240 10 l 1
 210 10 l 1
 210 90 l 1
 233 90 l 2
 280 90 320 128 320 175 c 2
 320 438 l 1
 291 463 269 491 252 531 c 0
 234 572 229 604 229 645 c 0
 229 676 230 716 247 761 c 0
 253 777 264 793 276 793 c 0
 289 793 291 783 291 773 c 0
 291 761 287 751 282 741 c 0
 273 721 268 716 261 696 c 0
 253 674 249 662 249 639 c 0
 249 610 254 591 265 566 c 0
 274 546 287 527 293 517 c 0
 295 514 312 490 312 490 c 2
 316 484 324 490 320 496 c 2
 320 496 303 520 301 523 c 0
 295 531 291 552 291 571 c 0
 291 591 293 598 301 616 c 0
 306 628 317 657 323 673 c 0
 330 693 332 707 332 730 c 0
EndSplineSet
EndChar

StartChar: uni047C
Encoding: 1148 1148 35
Width: 355
Flags: W
LayerCount: 2
Fore
SplineSet
210 82 m 2
 210 637 l 1
 230 637 l 1
 230 647 l 1
 125 647 l 1
 125 637 l 1
 145 637 l 1
 145 82 l 2
 145 33 113 -3 97 -3 c 0
 78 -3 77 16 77 34 c 0
 77 68 96 121 100 151 c 1
 100 767 l 2
 100 784 108 788 117 788 c 0
 127 788 134 780 134 766 c 2
 134 741 l 2
 134 734 144 734 144 741 c 2
 144 758 l 2
 144 786 132 812 93 812 c 0
 52 812 35 774 35 727 c 2
 35 73 l 2
 35 26 51 -12 99 -12 c 0
 115 -12 141 4 159 38 c 0
 165 50 170 64 174 73 c 2
 177 76 l 2
 177 75 180 74 181 73 c 0
 185 64 190 50 196 38 c 0
 214 4 240 -12 256 -12 c 0
 304 -12 320 26 320 73 c 2
 320 727 l 2
 320 774 303 812 262 812 c 0
 223 812 211 785 211 758 c 2
 211 741 l 2
 211 734 221 734 221 741 c 2
 221 766 l 2
 221 780 228 788 238 788 c 0
 247 788 255 784 255 767 c 2
 255 151 l 1
 259 121 278 68 278 34 c 0
 278 16 277 -3 258 -3 c 0
 242 -3 210 32 210 82 c 2
63 876 m 2
 61 879 58 884 58 891 c 0
 58 901 67 919 75 929 c 0
 79 936 84 942 91 946 c 0
 129 965 175 981 210 985 c 0
 215 986 222 986 225 983 c 0
 265 952 324 891 348 874 c 0
 350 869 350 865 349 860 c 1
 296 860 l 1
 265 879 235 929 198 953 c 0
 189 956 164 956 151 954 c 0
 141 952 123 942 115 936 c 1
 111 928 108 921 107 915 c 0
 106 904 109 890 110 884 c 2
 110 880 l 1
 63 876 l 2
198 859 m 1
 202 867 204 872 204 881 c 0
 204 894 192 909 177 909 c 0
 160 909 151 897 151 885 c 0
 151 873 156 863 158 859 c 1
 149 856 l 1
 140 863 129 879 129 896 c 0
 129 918 147 939 174 939 c 0
 201 939 225 915 225 894 c 0
 225 879 213 861 207 856 c 1
 198 859 l 1
EndSplineSet
EndChar

StartChar: uni047E
Encoding: 1150 1150 36
Width: 355
Flags: W
LayerCount: 2
Fore
SplineSet
320 73 m 2
 320 727 l 2
 320 774 303 812 262 812 c 0
 223 812 211 785 211 758 c 2
 211 741 l 2
 211 734 221 734 221 741 c 2
 221 766 l 2
 221 780 228 788 238 788 c 0
 247 788 255 784 255 767 c 2
 255 151 l 1
 259 121 278 68 278 34 c 0
 278 16 277 -3 258 -3 c 0
 242 -3 210 32 210 82 c 2
 210 637 l 1
 230 637 l 1
 230 647 l 1
 125 647 l 1
 125 637 l 1
 145 637 l 1
 145 82 l 2
 145 33 113 -3 97 -3 c 0
 78 -3 77 16 77 34 c 0
 77 68 96 121 100 151 c 1
 100 767 l 2
 100 784 108 788 117 788 c 0
 127 788 134 780 134 766 c 2
 134 741 l 2
 134 734 144 734 144 741 c 2
 144 758 l 2
 144 786 132 812 93 812 c 0
 52 812 35 774 35 727 c 2
 35 73 l 2
 35 26 51 -12 99 -12 c 0
 115 -12 141 4 159 38 c 0
 165 50 170 64 174 73 c 2
 177 76 l 2
 177 75 180 74 181 73 c 0
 185 64 190 50 196 38 c 0
 214 4 240 -12 256 -12 c 0
 304 -12 320 26 320 73 c 2
320 910 m 2
 320 915 l 1
 35 915 l 1
 35 910 l 2
 38 906 43 882 44 875 c 0
 45 864 42 847 39 839 c 1
 43 836 l 1
 67 840 96 881 99 905 c 1
 145 905 l 1
 145 843 l 1
 210 843 l 1
 210 905 l 1
 256 905 l 1
 258 881 288 840 312 836 c 1
 316 839 l 1
 313 847 310 864 311 875 c 0
 312 882 317 906 320 910 c 2
EndSplineSet
EndChar

StartChar: uni0478
Encoding: 1144 1144 37
Width: 471
Flags: W
LayerCount: 2
Fore
SplineSet
210 727 m 2
 210 774 169 812 122 812 c 0
 74 812 35 774 35 727 c 2
 35 73 l 2
 35 26 74 -12 122 -12 c 0
 169 -12 210 26 210 73 c 2
 210 727 l 2
395 0 m 1
 395 10 l 1
 353 10 l 1
 387 644 l 2
 391 721 410 741 429 741 c 2
 459 741 l 1
 459 806 l 1
 433 806 l 2
 396 806 382 761 380 715 c 2
 360 346 l 1
 332 790 l 1
 365 790 l 1
 365 800 l 1
 240 800 l 1
 240 790 l 1
 267 790 l 1
 296 332 l 1
 360 332 l 1
 343 10 l 1
 300 10 l 1
 300 0 l 1
 395 0 l 1
100 787 m 2
 100 798 111 803 122 803 c 0
 134 803 145 798 145 787 c 2
 145 13 l 2
 145 2 134 -3 122 -3 c 0
 111 -3 100 2 100 13 c 2
 100 787 l 2
EndSplineSet
EndChar

StartChar: uni0474
Encoding: 1140 1140 38
Width: 236
Flags: W
LayerCount: 2
Fore
SplineSet
29 0 m 1
 154 0 l 1
 154 10 l 1
 125 10 l 1
 124 51 l 1
 152 644 l 2
 156 721 175 741 194 741 c 2
 224 741 l 1
 224 806 l 1
 198 806 l 2
 161 806 147 763 145 715 c 2
 119 172 l 1
 97 790 l 1
 130 790 l 1
 130 800 l 1
 5 800 l 1
 5 790 l 1
 32 790 l 1
 60 10 l 1
 29 10 l 1
 29 0 l 1
EndSplineSet
EndChar

StartChar: uni0460
Encoding: 1120 1120 39
Width: 355
Flags: W
LayerCount: 2
Fore
SplineSet
210 82 m 2
 210 637 l 1
 230 637 l 1
 230 647 l 1
 125 647 l 1
 125 637 l 1
 145 637 l 1
 145 82 l 2
 145 33 113 -3 97 -3 c 0
 78 -3 77 16 77 34 c 0
 77 68 96 121 100 151 c 1
 100 767 l 2
 100 784 108 788 117 788 c 0
 127 788 134 780 134 766 c 2
 134 741 l 2
 134 734 144 734 144 741 c 2
 144 758 l 2
 144 786 132 812 93 812 c 0
 52 812 35 774 35 727 c 2
 35 73 l 2
 35 26 51 -12 99 -12 c 0
 115 -12 141 4 159 38 c 0
 165 50 170 64 174 73 c 2
 177 76 l 2
 177 75 180 74 181 73 c 0
 185 64 190 50 196 38 c 0
 214 4 240 -12 256 -12 c 0
 304 -12 320 26 320 73 c 2
 320 727 l 2
 320 774 303 812 262 812 c 0
 223 812 211 785 211 758 c 2
 211 741 l 2
 211 734 221 734 221 741 c 2
 221 766 l 2
 221 780 228 788 238 788 c 0
 247 788 255 784 255 767 c 2
 255 151 l 1
 259 121 278 68 278 34 c 0
 278 16 277 -3 258 -3 c 0
 242 -3 210 32 210 82 c 2
EndSplineSet
EndChar

StartChar: uni046E
Encoding: 1134 1134 40
Width: 245
Flags: W
LayerCount: 2
Fore
SplineSet
114 926 m 1
 114 936 l 1
 29 936 l 1
 29 926 l 1
 45 926 l 1
 90 806 l 1
 58 793 35 762 35 727 c 2
 35 595 l 1
 5 595 l 1
 5 585 l 1
 130 585 l 1
 130 595 l 1
 100 595 l 1
 100 787 l 2
 100 798 111 803 123 803 c 0
 134 803 145 798 145 787 c 2
 145 530 l 2
 145 520 136 515 126 514 c 2
 123 514 l 2
 76 514 33 486 33 439 c 2
 33 422 l 1
 100 422 l 1
 100 489 l 2
 100 500 111 505 123 505 c 2
 126 505 l 2
 136 504 145 499 145 489 c 2
 145 260 l 2
 145 218 139 184 127 156 c 0
 120 140 116 128 109 115 c 0
 105 107 102 100 100 93 c 2
 100 345 l 1
 130 345 l 1
 130 355 l 1
 5 355 l 1
 5 345 l 1
 31 345 l 1
 32 294 33 196 57 114 c 0
 73 60 103 -12 149 -12 c 0
 186 -12 215 39 215 76 c 0
 215 102 201 138 167 138 c 0
 148 138 142 121 142 106 c 0
 142 91 146 79 157 61 c 0
 165 47 172 34 172 18 c 0
 172 12 171 9 167 3 c 0
 161 0 155 -2 149 -2 c 0
 140 -2 131 2 123 8 c 0
 109 24 104 46 103 55 c 0
 105 73 108 91 118 109 c 0
 141 149 174 178 188 205 c 0
 201 228 210 250 210 287 c 2
 210 439 l 2
 210 475 187 500 155 509 c 1
 187 519 210 544 210 580 c 2
 210 727 l 2
 210 767 182 800 144 809 c 1
 154 846 l 2
 161 870 178 871 187 871 c 2
 209 871 l 1
 209 936 l 1
 199 936 l 2
 165 936 155 896 144 850 c 2
 137 824 l 1
 99 926 l 1
 114 926 l 1
EndSplineSet
EndChar

StartChar: uni0466
Encoding: 1126 1126 41
Width: 355
Flags: W
LayerCount: 2
Fore
SplineSet
350 0 m 1
 350 10 l 1
 320 10 l 1
 320 315 l 2
 320 390 299 419 259 451 c 0
 217 485 210 534 210 579 c 2
 210 790 l 1
 240 790 l 1
 240 800 l 1
 115 800 l 1
 115 790 l 1
 145 790 l 1
 145 543 l 2
 143 520 139 505 133 491 c 0
 127 477 115 455 94 438 c 0
 57 409 35 370 35 334 c 2
 35 10 l 1
 5 10 l 1
 5 0 l 1
 117 0 l 1
 117 10 l 1
 100 10 l 1
 100 352 l 1
 145 352 l 1
 145 10 l 1
 128 10 l 1
 128 0 l 1
 227 0 l 1
 227 10 l 1
 210 10 l 1
 210 352 l 1
 254 352 l 2
 254 349 255 345 255 342 c 2
 255 10 l 1
 238 10 l 1
 238 0 l 1
 350 0 l 1
111 426 m 0
 126 449 137 470 143 486 c 0
 145 491 147 496 148 503 c 1
 154 475 168 449 194 427 c 0
 218 405 242 386 251 362 c 1
 100 362 l 1
 100 386 l 2
 100 399 102 412 111 426 c 0
EndSplineSet
EndChar

StartChar: bracketleft
Encoding: 91 91 42
Width: 175
Flags: W
LayerCount: 2
Fore
SplineSet
45 842 m 1
 45 -42 l 1
 169 -42 l 1
 169 -32 l 1
 110 -32 l 1
 110 832 l 1
 169 832 l 1
 169 842 l 1
 45 842 l 1
EndSplineSet
EndChar

StartChar: bracketright
Encoding: 93 93 43
Width: 175
Flags: W
LayerCount: 2
Fore
SplineSet
130 -42 m 1
 130 842 l 1
 6 842 l 1
 6 832 l 1
 65 832 l 1
 65 -32 l 1
 6 -32 l 1
 6 -42 l 1
 130 -42 l 1
EndSplineSet
EndChar

StartChar: uni2E2F
Encoding: 11823 11823 44
Width: 130
Flags: HW
LayerCount: 2
Fore
SplineSet
96.5 878 m 1
 77.5 944 l 1
 106.5 960 l 1
 100.5 971 l 1
 36.5 938 l 1
 56.5 870 l 1
 23.5 854 l 1
 29.5 843 l 1
 96.5 878 l 1
EndSplineSet
EndChar

StartChar: grave
Encoding: 96 96 45
Width: 132
Flags: W
LayerCount: 2
Fore
SplineSet
112 576 m 1
 86 576 l 1
 20 793 l 1
 20 800 l 1
 62 800 l 1
 112 583 l 1
 112 576 l 1
EndSplineSet
EndChar

StartChar: uni2DEA
Encoding: 11754 11754 46
Width: 1
Flags: HW
LayerCount: 2
Fore
SplineSet
-133 852 m 0
 -124 852 -115 861 -115 876 c 2
 -115 897 l 2
 -115 909 -124 921 -133 921 c 0
 -145 921 -151 909 -151 897 c 2
 -151 876 l 2
 -151 861 -145 852 -133 852 c 0
-133 933 m 0
 -106 933 -82 915 -82 885 c 0
 -82 855 -103 840 -133 840 c 0
 -164 840 -187 855 -187 885 c 0
 -187 915 -163 933 -133 933 c 0
EndSplineSet
EndChar

StartChar: uni2DE3
Encoding: 11747 11747 47
Width: 1
Flags: W
LayerCount: 2
Fore
SplineSet
21 868 m 1
 21 878 l 1
 -61 878 l 1
 -130 1033 l 1
 -228 1041 l 1
 -260 984 l 1
 -219 976 l 1
 -189 1029 l 1
 -176 1028 l 1
 -147 962 l 1
 -194 878 l 1
 -289 878 l 1
 -289 868 l 1
 -241 822 l 1
 -237 822 l 1
 -237 868 l 1
 -31 868 l 1
 -31 822 l 1
 -27 822 l 1
 21 868 l 1
-182 878 m 1
 -142 950 l 1
 -110 878 l 1
 -182 878 l 1
EndSplineSet
EndChar

StartChar: uni0473
Encoding: 1139 1139 48
Width: 355
Flags: W
LayerCount: 2
Fore
SplineSet
346 2 m 0
 343 10 339 19 337 30 c 0
 327 78 326 104 326 152 c 0
 326 188 334 235 338 257 c 0
 339 261 339 264 338 267 c 2
 265 267 l 1
 265 727 l 2
 265 774 224 812 177 812 c 0
 129 812 90 774 90 727 c 2
 90 267 l 1
 17 267 l 2
 16 264 16 261 17 257 c 0
 21 235 29 188 29 152 c 0
 29 104 28 78 18 30 c 0
 16 19 12 10 9 2 c 0
 8 -1 15 -4 16 -1 c 0
 18 4 25 17 29 28 c 0
 48 77 57 98 69 150 c 0
 77 186 82 236 83 257 c 1
 90 257 l 1
 90 73 l 2
 90 26 129 -12 177 -12 c 0
 224 -12 265 26 265 73 c 2
 265 257 l 1
 272 257 l 1
 272 236 277 186 286 150 c 0
 298 98 307 77 326 28 c 0
 330 17 337 4 339 -1 c 0
 340 -4 347 -1 346 2 c 0
155 787 m 2
 155 798 166 803 177 803 c 0
 189 803 200 798 200 787 c 2
 200 267 l 1
 155 267 l 1
 155 787 l 2
177 -3 m 0
 166 -3 155 2 155 13 c 2
 155 257 l 1
 200 257 l 1
 200 13 l 2
 200 2 189 -3 177 -3 c 0
EndSplineSet
EndChar

StartChar: uni2DE2
Encoding: 11746 11746 49
Width: 1
Flags: HW
LayerCount: 2
Fore
SplineSet
-89 920 m 1
 -98 905 l 1
 -107 905 l 1
 -120 920 l 1
 -137 920 l 1
 -137 840 l 1
 -170 840 l 1
 -170 932 l 1
 -89 932 l 1
 -89 920 l 1
EndSplineSet
EndChar

StartChar: uni0456
Encoding: 1110 1110 50
Width: 135
Flags: W
LayerCount: 2
Fore
SplineSet
130 0 m 1
 130 10 l 1
 100 10 l 1
 100 790 l 1
 130 790 l 1
 130 800 l 1
 5 800 l 1
 5 790 l 1
 35 790 l 1
 35 10 l 1
 5 10 l 1
 5 0 l 1
 130 0 l 1
EndSplineSet
EndChar

StartChar: uni0477
Encoding: 1143 1143 51
Width: 236
Flags: W
LayerCount: 2
Fore
SplineSet
29 0 m 1
 154 0 l 1
 154 10 l 1
 125 10 l 1
 124 51 l 1
 152 644 l 2
 156 721 175 741 194 741 c 2
 224 741 l 1
 224 806 l 1
 198 806 l 2
 161 806 147 763 145 715 c 2
 119 172 l 1
 97 790 l 1
 130 790 l 1
 130 800 l 1
 5 800 l 1
 5 790 l 1
 32 790 l 1
 60 10 l 1
 29 10 l 1
 29 0 l 1
187 870 m 1
 141 947 l 1
 100 947 l 1
 100 941 l 1
 146 864 l 1
 187 864 l 1
 187 870 l 1
91 870 m 1
 45 947 l 1
 4 947 l 1
 4 941 l 1
 50 864 l 1
 91 864 l 1
 91 870 l 1
EndSplineSet
EndChar

StartChar: uni047B
Encoding: 1147 1147 52
Width: 325
Flags: W
LayerCount: 2
Fore
SplineSet
122 812 m 0
 74 812 35 774 35 727 c 2
 35 73 l 2
 35 26 74 -12 122 -12 c 0
 130 -12 138 -10 146 -8 c 0
 150 -10 156 -12 162 -12 c 0
 168 -12 174 -10 178 -8 c 0
 186 -11 195 -12 203 -12 c 0
 251 -12 290 26 290 73 c 2
 290 727 l 2
 290 774 251 812 203 812 c 0
 195 812 186 811 178 808 c 0
 174 810 168 812 162 812 c 0
 155 812 150 810 145 808 c 0
 138 810 129 812 122 812 c 0
162 66 m 0
 139 66 128 46 128 27 c 0
 128 17 131 6 138 -1 c 1
 132 -2 127 -3 122 -3 c 0
 111 -3 100 2 100 13 c 2
 100 787 l 2
 100 798 111 803 122 803 c 0
 127 803 132 802 137 801 c 1
 131 794 128 783 128 773 c 0
 128 754 140 734 162 734 c 0
 184 734 196 754 196 773 c 0
 196 782 193 792 187 800 c 1
 193 802 199 803 203 803 c 0
 214 803 225 798 225 787 c 2
 225 13 l 2
 225 2 214 -3 203 -3 c 0
 197 -3 191 -2 186 -1 c 1
 192 6 196 17 196 27 c 0
 196 46 184 66 162 66 c 0
EndSplineSet
EndChar

StartChar: uni0471
Encoding: 1137 1137 53
Width: 355
Flags: W
LayerCount: 2
Fore
SplineSet
332 730 m 0
 332 767 309 803 279 803 c 0
 258 803 245 785 237 765 c 0
 220 718 219 676 219 645 c 0
 219 603 224 570 242 527 c 0
 246 517 251 508 255 500 c 1
 255 115 l 2
 255 104 244 100 233 100 c 2
 210 100 l 1
 210 790 l 1
 240 790 l 1
 240 800 l 1
 115 800 l 1
 115 790 l 1
 145 790 l 1
 145 100 l 1
 122 100 l 2
 111 100 100 104 100 115 c 2
 100 500 l 1
 104 508 109 517 113 527 c 0
 131 570 136 603 136 645 c 0
 136 676 135 718 118 765 c 0
 110 785 97 803 76 803 c 0
 46 803 23 767 23 730 c 0
 23 707 25 693 32 673 c 0
 38 657 49 628 54 616 c 0
 62 598 64 591 64 571 c 0
 64 552 60 531 54 523 c 0
 52 520 35 496 35 496 c 2
 31 490 39 484 43 490 c 2
 43 490 60 514 62 517 c 0
 68 527 81 546 90 566 c 0
 101 591 106 610 106 639 c 0
 106 662 102 674 94 696 c 0
 87 716 82 721 73 741 c 0
 68 751 64 761 64 773 c 0
 64 783 66 793 79 793 c 0
 91 793 102 777 108 761 c 0
 125 716 126 676 126 645 c 0
 126 604 121 572 103 531 c 0
 86 491 64 463 35 438 c 1
 35 175 l 2
 35 128 75 90 122 90 c 2
 145 90 l 1
 145 10 l 1
 115 10 l 1
 115 0 l 1
 240 0 l 1
 240 10 l 1
 210 10 l 1
 210 90 l 1
 233 90 l 2
 280 90 320 128 320 175 c 2
 320 438 l 1
 291 463 269 491 252 531 c 0
 234 572 229 604 229 645 c 0
 229 676 230 716 247 761 c 0
 253 777 264 793 276 793 c 0
 289 793 291 783 291 773 c 0
 291 761 287 751 282 741 c 0
 273 721 268 716 261 696 c 0
 253 674 249 662 249 639 c 0
 249 610 254 591 265 566 c 0
 274 546 287 527 293 517 c 0
 295 514 312 490 312 490 c 2
 316 484 324 490 320 496 c 2
 320 496 303 520 301 523 c 0
 295 531 291 552 291 571 c 0
 291 591 293 598 301 616 c 0
 306 628 317 657 323 673 c 0
 330 693 332 707 332 730 c 0
EndSplineSet
EndChar

StartChar: uni047D
Encoding: 1149 1149 54
Width: 355
Flags: W
LayerCount: 2
Fore
SplineSet
210 82 m 2
 210 637 l 1
 230 637 l 1
 230 647 l 1
 125 647 l 1
 125 637 l 1
 145 637 l 1
 145 82 l 2
 145 33 113 -3 97 -3 c 0
 78 -3 77 16 77 34 c 0
 77 68 96 121 100 151 c 1
 100 767 l 2
 100 784 108 788 117 788 c 0
 127 788 134 780 134 766 c 2
 134 741 l 2
 134 734 144 734 144 741 c 2
 144 758 l 2
 144 786 132 812 93 812 c 0
 52 812 35 774 35 727 c 2
 35 73 l 2
 35 26 51 -12 99 -12 c 0
 115 -12 141 4 159 38 c 0
 165 50 170 64 174 73 c 2
 177 76 l 2
 177 75 180 74 181 73 c 0
 185 64 190 50 196 38 c 0
 214 4 240 -12 256 -12 c 0
 304 -12 320 26 320 73 c 2
 320 727 l 2
 320 774 303 812 262 812 c 0
 223 812 211 785 211 758 c 2
 211 741 l 2
 211 734 221 734 221 741 c 2
 221 766 l 2
 221 780 228 788 238 788 c 0
 247 788 255 784 255 767 c 2
 255 151 l 1
 259 121 278 68 278 34 c 0
 278 16 277 -3 258 -3 c 0
 242 -3 210 32 210 82 c 2
63 876 m 2
 61 879 58 884 58 891 c 0
 58 901 67 919 75 929 c 0
 79 936 84 942 91 946 c 0
 129 965 175 981 210 985 c 0
 215 986 222 986 225 983 c 0
 265 952 324 891 348 874 c 0
 350 869 350 865 349 860 c 1
 296 860 l 1
 265 879 235 929 198 953 c 0
 189 956 164 956 151 954 c 0
 141 952 123 942 115 936 c 1
 111 928 108 921 107 915 c 0
 106 904 109 890 110 884 c 2
 110 880 l 1
 63 876 l 2
198 859 m 1
 202 867 204 872 204 881 c 0
 204 894 192 909 177 909 c 0
 160 909 151 897 151 885 c 0
 151 873 156 863 158 859 c 1
 149 856 l 1
 140 863 129 879 129 896 c 0
 129 918 147 939 174 939 c 0
 201 939 225 915 225 894 c 0
 225 879 213 861 207 856 c 1
 198 859 l 1
EndSplineSet
EndChar

StartChar: uni047F
Encoding: 1151 1151 55
Width: 355
Flags: W
LayerCount: 2
Fore
SplineSet
320 73 m 2
 320 727 l 2
 320 774 303 812 262 812 c 0
 223 812 211 785 211 758 c 2
 211 741 l 2
 211 734 221 734 221 741 c 2
 221 766 l 2
 221 780 228 788 238 788 c 0
 247 788 255 784 255 767 c 2
 255 151 l 1
 259 121 278 68 278 34 c 0
 278 16 277 -3 258 -3 c 0
 242 -3 210 32 210 82 c 2
 210 637 l 1
 230 637 l 1
 230 647 l 1
 125 647 l 1
 125 637 l 1
 145 637 l 1
 145 82 l 2
 145 33 113 -3 97 -3 c 0
 78 -3 77 16 77 34 c 0
 77 68 96 121 100 151 c 1
 100 767 l 2
 100 784 108 788 117 788 c 0
 127 788 134 780 134 766 c 2
 134 741 l 2
 134 734 144 734 144 741 c 2
 144 758 l 2
 144 786 132 812 93 812 c 0
 52 812 35 774 35 727 c 2
 35 73 l 2
 35 26 51 -12 99 -12 c 0
 115 -12 141 4 159 38 c 0
 165 50 170 64 174 73 c 2
 177 76 l 2
 177 75 180 74 181 73 c 0
 185 64 190 50 196 38 c 0
 214 4 240 -12 256 -12 c 0
 304 -12 320 26 320 73 c 2
320 910 m 2
 320 915 l 1
 35 915 l 1
 35 910 l 2
 38 906 43 882 44 875 c 0
 45 864 42 847 39 839 c 1
 43 836 l 1
 67 840 96 881 99 905 c 1
 145 905 l 1
 145 843 l 1
 210 843 l 1
 210 905 l 1
 256 905 l 1
 258 881 288 840 312 836 c 1
 316 839 l 1
 313 847 310 864 311 875 c 0
 312 882 317 906 320 910 c 2
EndSplineSet
EndChar

StartChar: uni0479
Encoding: 1145 1145 56
Width: 471
Flags: W
LayerCount: 2
Fore
SplineSet
210 727 m 2
 210 774 169 812 122 812 c 0
 74 812 35 774 35 727 c 2
 35 73 l 2
 35 26 74 -12 122 -12 c 0
 169 -12 210 26 210 73 c 2
 210 727 l 2
395 0 m 1
 395 10 l 1
 353 10 l 1
 387 644 l 2
 391 721 410 741 429 741 c 2
 459 741 l 1
 459 806 l 1
 433 806 l 2
 396 806 382 761 380 715 c 2
 360 346 l 1
 332 790 l 1
 365 790 l 1
 365 800 l 1
 240 800 l 1
 240 790 l 1
 267 790 l 1
 296 332 l 1
 360 332 l 1
 343 10 l 1
 300 10 l 1
 300 0 l 1
 395 0 l 1
100 787 m 2
 100 798 111 803 122 803 c 0
 134 803 145 798 145 787 c 2
 145 13 l 2
 145 2 134 -3 122 -3 c 0
 111 -3 100 2 100 13 c 2
 100 787 l 2
EndSplineSet
EndChar

StartChar: uni0475
Encoding: 1141 1141 57
Width: 236
Flags: W
LayerCount: 2
Fore
SplineSet
29 0 m 1
 154 0 l 1
 154 10 l 1
 125 10 l 1
 124 51 l 1
 152 644 l 2
 156 721 175 741 194 741 c 2
 224 741 l 1
 224 806 l 1
 198 806 l 2
 161 806 147 763 145 715 c 2
 119 172 l 1
 97 790 l 1
 130 790 l 1
 130 800 l 1
 5 800 l 1
 5 790 l 1
 32 790 l 1
 60 10 l 1
 29 10 l 1
 29 0 l 1
EndSplineSet
EndChar

StartChar: uni0461
Encoding: 1121 1121 58
Width: 355
Flags: W
LayerCount: 2
Fore
SplineSet
210 82 m 2
 210 637 l 1
 230 637 l 1
 230 647 l 1
 125 647 l 1
 125 637 l 1
 145 637 l 1
 145 82 l 2
 145 33 113 -3 97 -3 c 0
 78 -3 77 16 77 34 c 0
 77 68 96 121 100 151 c 1
 100 767 l 2
 100 784 108 788 117 788 c 0
 127 788 134 780 134 766 c 2
 134 741 l 2
 134 734 144 734 144 741 c 2
 144 758 l 2
 144 786 132 812 93 812 c 0
 52 812 35 774 35 727 c 2
 35 73 l 2
 35 26 51 -12 99 -12 c 0
 115 -12 141 4 159 38 c 0
 165 50 170 64 174 73 c 2
 177 76 l 2
 177 75 180 74 181 73 c 0
 185 64 190 50 196 38 c 0
 214 4 240 -12 256 -12 c 0
 304 -12 320 26 320 73 c 2
 320 727 l 2
 320 774 303 812 262 812 c 0
 223 812 211 785 211 758 c 2
 211 741 l 2
 211 734 221 734 221 741 c 2
 221 766 l 2
 221 780 228 788 238 788 c 0
 247 788 255 784 255 767 c 2
 255 151 l 1
 259 121 278 68 278 34 c 0
 278 16 277 -3 258 -3 c 0
 242 -3 210 32 210 82 c 2
EndSplineSet
EndChar

StartChar: uni046F
Encoding: 1135 1135 59
Width: 245
Flags: W
LayerCount: 2
Fore
SplineSet
114 926 m 1
 114 936 l 1
 29 936 l 1
 29 926 l 1
 45 926 l 1
 90 806 l 1
 58 793 35 762 35 727 c 2
 35 595 l 1
 5 595 l 1
 5 585 l 1
 130 585 l 1
 130 595 l 1
 100 595 l 1
 100 787 l 2
 100 798 111 803 123 803 c 0
 134 803 145 798 145 787 c 2
 145 530 l 2
 145 520 136 515 126 514 c 2
 123 514 l 2
 76 514 33 486 33 439 c 2
 33 422 l 1
 100 422 l 1
 100 489 l 2
 100 500 111 505 123 505 c 2
 126 505 l 2
 136 504 145 499 145 489 c 2
 145 260 l 2
 145 218 139 184 127 156 c 0
 120 140 116 128 109 115 c 0
 105 107 102 100 100 93 c 2
 100 345 l 1
 130 345 l 1
 130 355 l 1
 5 355 l 1
 5 345 l 1
 31 345 l 1
 32 294 33 196 57 114 c 0
 73 60 103 -12 149 -12 c 0
 186 -12 215 39 215 76 c 0
 215 102 201 138 167 138 c 0
 148 138 142 121 142 106 c 0
 142 91 146 79 157 61 c 0
 165 47 172 34 172 18 c 0
 172 12 171 9 167 3 c 0
 161 0 155 -2 149 -2 c 0
 140 -2 131 2 123 8 c 0
 109 24 104 46 103 55 c 0
 105 73 108 91 118 109 c 0
 141 149 174 178 188 205 c 0
 201 228 210 250 210 287 c 2
 210 439 l 2
 210 475 187 500 155 509 c 1
 187 519 210 544 210 580 c 2
 210 727 l 2
 210 767 182 800 144 809 c 1
 154 846 l 2
 161 870 178 871 187 871 c 2
 209 871 l 1
 209 936 l 1
 199 936 l 2
 165 936 155 896 144 850 c 2
 137 824 l 1
 99 926 l 1
 114 926 l 1
EndSplineSet
EndChar

StartChar: uni0467
Encoding: 1127 1127 60
Width: 355
Flags: W
LayerCount: 2
Fore
SplineSet
350 0 m 1
 350 10 l 1
 320 10 l 1
 320 315 l 2
 320 390 299 419 259 451 c 0
 217 485 210 534 210 579 c 2
 210 790 l 1
 240 790 l 1
 240 800 l 1
 115 800 l 1
 115 790 l 1
 145 790 l 1
 145 543 l 2
 143 520 139 505 133 491 c 0
 127 477 115 455 94 438 c 0
 57 409 35 370 35 334 c 2
 35 10 l 1
 5 10 l 1
 5 0 l 1
 117 0 l 1
 117 10 l 1
 100 10 l 1
 100 352 l 1
 145 352 l 1
 145 10 l 1
 128 10 l 1
 128 0 l 1
 227 0 l 1
 227 10 l 1
 210 10 l 1
 210 352 l 1
 254 352 l 2
 254 349 255 345 255 342 c 2
 255 10 l 1
 238 10 l 1
 238 0 l 1
 350 0 l 1
111 426 m 0
 126 449 137 470 143 486 c 0
 145 491 147 496 148 503 c 1
 154 475 168 449 194 427 c 0
 218 405 242 386 251 362 c 1
 100 362 l 1
 100 386 l 2
 100 399 102 412 111 426 c 0
EndSplineSet
EndChar

StartChar: afii10051
Encoding: 1026 1026 61
Width: 360
Flags: HW
LayerCount: 2
Fore
SplineSet
310 0 m 1
 50 0 l 1
 50 800 l 1
 310 800 l 1
 310 0 l 1
190 401 m 1
 290 40 l 1
 290 762 l 1
 190 401 l 1
169 401 m 1
 70 762 l 1
 70 40 l 1
 169 401 l 1
180 362 m 1
 86 20 l 1
 274 20 l 1
 180 362 l 1
86 780 m 1
 180 440 l 1
 273 780 l 1
 86 780 l 1
EndSplineSet
EndChar

StartChar: quotesinglbase
Encoding: 8218 8218 63
Width: 132
Flags: W
LayerCount: 2
Fore
SplineSet
112 217 m 1
 46 0 l 1
 20 0 l 1
 20 7 l 1
 70 224 l 1
 112 224 l 1
 112 217 l 1
EndSplineSet
EndChar

StartChar: quotedblbase
Encoding: 8222 8222 65
Width: 202
Flags: W
LayerCount: 2
Fore
SplineSet
182 217 m 1
 116 0 l 1
 90 0 l 1
 90 7 l 1
 140 224 l 1
 182 224 l 1
 182 217 l 1
112 217 m 1
 46 0 l 1
 20 0 l 1
 20 7 l 1
 70 224 l 1
 112 224 l 1
 112 217 l 1
EndSplineSet
EndChar

StartChar: uni2DE5
Encoding: 11749 11749 66
Width: 1
Flags: W
LayerCount: 2
Fore
SplineSet
-215 978 m 1
 -194 990 -168 999 -141 999 c 0
 -127 999 -103 992 -99 983 c 0
 -95 970 -91 958 -81 945 c 0
 -78 942 -72 940 -65 940 c 0
 -30 942 23 942 12 898 c 0
 6 878 -15 858 -59 857 c 0
 -83 856 -101 861 -115 870 c 0
 -126 878 -119 889 -101 881 c 0
 -95 878 -88 870 -79 870 c 0
 -41 868 -13 877 -15 902 c 0
 -15 915 -73 912 -106 911 c 0
 -110 911 -113 914 -115 915 c 0
 -130 932 -140 954 -144 979 c 0
 -146 981 -149 982 -151 982 c 0
 -169 982 -187 974 -205 966 c 1
 -203 957 -208 941 -221 934 c 0
 -234 928 -244 930 -254 934 c 1
 -271 919 -279 909 -276 903 c 0
 -276 901 -275 898 -271 897 c 0
 -263 894 -260 895 -254 895 c 0
 -248 895 -244 882 -255 882 c 0
 -264 882 -278 882 -287 886 c 0
 -292 887 -297 897 -297 900 c 0
 -295 911 -282 931 -263 946 c 1
 -270 956 -262 974 -250 981 c 0
 -237 987 -224 984 -215 978 c 1
EndSplineSet
EndChar

StartChar: afii10058
Encoding: 1033 1033 67
Width: 360
Flags: HW
LayerCount: 2
Fore
SplineSet
310 0 m 1
 50 0 l 1
 50 800 l 1
 310 800 l 1
 310 0 l 1
190 401 m 1
 290 40 l 1
 290 762 l 1
 190 401 l 1
169 401 m 1
 70 762 l 1
 70 40 l 1
 169 401 l 1
180 362 m 1
 86 20 l 1
 274 20 l 1
 180 362 l 1
86 780 m 1
 180 440 l 1
 273 780 l 1
 86 780 l 1
EndSplineSet
EndChar

StartChar: afii10059
Encoding: 1034 1034 68
Width: 360
Flags: HW
LayerCount: 2
Fore
SplineSet
310 0 m 1
 50 0 l 1
 50 800 l 1
 310 800 l 1
 310 0 l 1
190 401 m 1
 290 40 l 1
 290 762 l 1
 190 401 l 1
169 401 m 1
 70 762 l 1
 70 40 l 1
 169 401 l 1
180 362 m 1
 86 20 l 1
 274 20 l 1
 180 362 l 1
86 780 m 1
 180 440 l 1
 273 780 l 1
 86 780 l 1
EndSplineSet
EndChar

StartChar: afii10060
Encoding: 1035 1035 70
Width: 360
Flags: HW
LayerCount: 2
Fore
SplineSet
310 0 m 1
 50 0 l 1
 50 800 l 1
 310 800 l 1
 310 0 l 1
190 401 m 1
 290 40 l 1
 290 762 l 1
 190 401 l 1
169 401 m 1
 70 762 l 1
 70 40 l 1
 169 401 l 1
180 362 m 1
 86 20 l 1
 274 20 l 1
 180 362 l 1
86 780 m 1
 180 440 l 1
 273 780 l 1
 86 780 l 1
EndSplineSet
EndChar

StartChar: afii10145
Encoding: 1039 1039 71
Width: 360
Flags: HW
LayerCount: 2
Fore
SplineSet
310 0 m 1
 50 0 l 1
 50 800 l 1
 310 800 l 1
 310 0 l 1
190 401 m 1
 290 40 l 1
 290 762 l 1
 190 401 l 1
169 401 m 1
 70 762 l 1
 70 40 l 1
 169 401 l 1
180 362 m 1
 86 20 l 1
 274 20 l 1
 180 362 l 1
86 780 m 1
 180 440 l 1
 273 780 l 1
 86 780 l 1
EndSplineSet
EndChar

StartChar: afii10099
Encoding: 1106 1106 72
Width: 360
Flags: HW
LayerCount: 2
Fore
SplineSet
310 0 m 1
 50 0 l 1
 50 800 l 1
 310 800 l 1
 310 0 l 1
190 401 m 1
 290 40 l 1
 290 762 l 1
 190 401 l 1
169 401 m 1
 70 762 l 1
 70 40 l 1
 169 401 l 1
180 362 m 1
 86 20 l 1
 274 20 l 1
 180 362 l 1
86 780 m 1
 180 440 l 1
 273 780 l 1
 86 780 l 1
EndSplineSet
EndChar

StartChar: quoteleft
Encoding: 8216 8216 73
Width: 132
Flags: W
LayerCount: 2
Fore
SplineSet
113 793 m 1
 63 576 l 1
 21 576 l 1
 21 583 l 1
 87 800 l 1
 113 800 l 1
 113 793 l 1
EndSplineSet
EndChar

StartChar: quoteright
Encoding: 8217 8217 74
Width: 132
Flags: W
LayerCount: 2
Fore
SplineSet
112 793 m 1
 46 576 l 1
 20 576 l 1
 20 583 l 1
 70 800 l 1
 112 800 l 1
 112 793 l 1
EndSplineSet
EndChar

StartChar: quotedblleft
Encoding: 8220 8220 75
Width: 202
Flags: W
LayerCount: 2
Fore
SplineSet
113 793 m 1
 63 576 l 1
 21 576 l 1
 21 583 l 1
 87 800 l 1
 113 800 l 1
 113 793 l 1
183 793 m 1
 133 576 l 1
 91 576 l 1
 91 583 l 1
 157 800 l 1
 183 800 l 1
 183 793 l 1
EndSplineSet
EndChar

StartChar: quotedblright
Encoding: 8221 8221 76
Width: 202
Flags: W
LayerCount: 2
Fore
SplineSet
182 793 m 1
 116 576 l 1
 90 576 l 1
 90 583 l 1
 140 800 l 1
 182 800 l 1
 182 793 l 1
112 793 m 1
 46 576 l 1
 20 576 l 1
 20 583 l 1
 70 800 l 1
 112 800 l 1
 112 793 l 1
EndSplineSet
EndChar

StartChar: uni2DE4
Encoding: 11748 11748 77
Width: 1
Flags: W
LayerCount: 2
Fore
SplineSet
-157 887 m 1
 -134 869 -110 853 -81 845 c 0
 -69 842 -51 846 -67 857 c 0
 -86 871 -109 887 -118 921 c 1
 -94 943 -46 970 -22 939 c 0
 -6 920 36 941 36 954 c 0
 36 967 29 979 14 985 c 0
 -21 997 -62 981 -84 969 c 1
 -93 977 -92 984 -94 995 c 0
 -94 997 -98 999 -100 997 c 0
 -121 983 -139 977 -161 977 c 0
 -183 979 -191 995 -216 996 c 1
 -232 981 -241 965 -258 957 c 1
 -221 952 -198 921 -176 905 c 1
 -190 889 -207 876 -230 866 c 0
 -241 860 -232 848 -214 856 c 0
 -197 863 -174 874 -157 887 c 1
EndSplineSet
EndChar

StartChar: endash
Encoding: 8211 8211 78
Width: 295
Flags: W
LayerCount: 2
Fore
SplineSet
270 380 m 1
 25 380 l 1
 25 420 l 1
 270 420 l 1
 270 380 l 1
EndSplineSet
EndChar

StartChar: emdash
Encoding: 8212 8212 79
Width: 455
Flags: W
LayerCount: 2
Fore
SplineSet
430 380 m 1
 25 380 l 1
 25 420 l 1
 430 420 l 1
 430 380 l 1
EndSplineSet
EndChar

StartChar: afii10106
Encoding: 1113 1113 80
Width: 360
Flags: HW
LayerCount: 2
Fore
SplineSet
310 0 m 1
 50 0 l 1
 50 800 l 1
 310 800 l 1
 310 0 l 1
190 401 m 1
 290 40 l 1
 290 762 l 1
 190 401 l 1
169 401 m 1
 70 762 l 1
 70 40 l 1
 169 401 l 1
180 362 m 1
 86 20 l 1
 274 20 l 1
 180 362 l 1
86 780 m 1
 180 440 l 1
 273 780 l 1
 86 780 l 1
EndSplineSet
EndChar

StartChar: afii10107
Encoding: 1114 1114 81
Width: 360
Flags: HW
LayerCount: 2
Fore
SplineSet
310 0 m 1
 50 0 l 1
 50 800 l 1
 310 800 l 1
 310 0 l 1
190 401 m 1
 290 40 l 1
 290 762 l 1
 190 401 l 1
169 401 m 1
 70 762 l 1
 70 40 l 1
 169 401 l 1
180 362 m 1
 86 20 l 1
 274 20 l 1
 180 362 l 1
86 780 m 1
 180 440 l 1
 273 780 l 1
 86 780 l 1
EndSplineSet
EndChar

StartChar: afii10108
Encoding: 1115 1115 83
Width: 360
Flags: HW
LayerCount: 2
Fore
SplineSet
310 0 m 1
 50 0 l 1
 50 800 l 1
 310 800 l 1
 310 0 l 1
190 401 m 1
 290 40 l 1
 290 762 l 1
 190 401 l 1
169 401 m 1
 70 762 l 1
 70 40 l 1
 169 401 l 1
180 362 m 1
 86 20 l 1
 274 20 l 1
 180 362 l 1
86 780 m 1
 180 440 l 1
 273 780 l 1
 86 780 l 1
EndSplineSet
EndChar

StartChar: afii10193
Encoding: 1119 1119 84
Width: 360
Flags: HW
LayerCount: 2
Fore
SplineSet
310 0 m 1
 50 0 l 1
 50 800 l 1
 310 800 l 1
 310 0 l 1
190 401 m 1
 290 40 l 1
 290 762 l 1
 190 401 l 1
169 401 m 1
 70 762 l 1
 70 40 l 1
 169 401 l 1
180 362 m 1
 86 20 l 1
 274 20 l 1
 180 362 l 1
86 780 m 1
 180 440 l 1
 273 780 l 1
 86 780 l 1
EndSplineSet
EndChar

StartChar: afii10057
Encoding: 1032 1032 88
Width: 360
Flags: HW
LayerCount: 2
Fore
SplineSet
310 0 m 1
 50 0 l 1
 50 800 l 1
 310 800 l 1
 310 0 l 1
190 401 m 1
 290 40 l 1
 290 762 l 1
 190 401 l 1
169 401 m 1
 70 762 l 1
 70 40 l 1
 169 401 l 1
180 362 m 1
 86 20 l 1
 274 20 l 1
 180 362 l 1
86 780 m 1
 180 440 l 1
 273 780 l 1
 86 780 l 1
EndSplineSet
EndChar

StartChar: uni0482
Encoding: 1154 1154 89
Width: 218
Flags: W
LayerCount: 2
Fore
SplineSet
203 135 m 1
 184 100 l 1
 137 124 l 1
 133 114 127 101 123 90 c 1
 174 67 l 1
 151 32 l 1
 138 38 125 43 107 53 c 1
 93 27 85 6 81 -8 c 1
 40 6 l 1
 46 19 55 43 69 73 c 1
 48 82 28 92 15 98 c 1
 38 134 l 1
 50 129 67 118 86 111 c 1
 90 120 95 131 100 143 c 1
 79 154 59 163 48 170 c 1
 67 206 l 1
 79 199 98 190 116 181 c 1
 131 208 141 229 145 245 c 1
 185 229 l 1
 179 214 168 193 154 161 c 1
 175 152 189 144 203 135 c 1
EndSplineSet
EndChar

StartChar: guillemotleft
Encoding: 171 171 92
Width: 230
Flags: W
LayerCount: 2
Fore
SplineSet
125 147 m 1
 119 147 l 1
 28 398 l 1
 28 402 l 1
 119 649 l 1
 125 649 l 1
 81 400 l 1
 125 147 l 1
205 147 m 1
 199 147 l 1
 108 398 l 1
 108 402 l 1
 199 649 l 1
 205 649 l 1
 161 400 l 1
 205 147 l 1
EndSplineSet
EndChar

StartChar: logicalnot
Encoding: 172 172 93
Width: 215
Flags: W
LayerCount: 2
Fore
SplineSet
190 300 m 1
 150 300 l 1
 150 380 l 1
 25 380 l 1
 25 420 l 1
 190 420 l 1
 190 300 l 1
EndSplineSet
EndChar

StartChar: uniA67E
Encoding: 42622 42622 94
Width: 234
Flags: W
LayerCount: 2
Fore
SplineSet
117 705 m 0
 59 705 20 727 20 775 c 2
 20 800 l 1
 85 800 l 1
 85 775 l 2
 85 747 90 725 117 725 c 0
 145 725 150 747 150 775 c 2
 150 800 l 1
 214 800 l 1
 214 775 l 2
 214 727 175 705 117 705 c 0
EndSplineSet
EndChar

StartChar: uni0407
Encoding: 1031 1031 95
Width: 135
Flags: W
LayerCount: 2
Fore
SplineSet
130 0 m 1
 130 10 l 1
 100 10 l 1
 100 790 l 1
 130 790 l 1
 130 800 l 1
 5 800 l 1
 5 790 l 1
 35 790 l 1
 35 10 l 1
 5 10 l 1
 5 0 l 1
 130 0 l 1
41 870 m 5
 -5 947 l 5
 -46 947 l 5
 -46 941 l 5
 0 864 l 5
 41 864 l 5
 41 870 l 5
137 870 m 5
 91 947 l 5
 50 947 l 5
 50 941 l 5
 96 864 l 5
 137 864 l 5
 137 870 l 5
EndSplineSet
EndChar

StartChar: uni0457
Encoding: 1111 1111 96
Width: 135
Flags: W
LayerCount: 2
Fore
SplineSet
130 0 m 1
 130 10 l 1
 100 10 l 1
 100 790 l 1
 130 790 l 1
 130 800 l 1
 5 800 l 1
 5 790 l 1
 35 790 l 1
 35 10 l 1
 5 10 l 1
 5 0 l 1
 130 0 l 1
41 870 m 1
 -5 947 l 1
 -46 947 l 1
 -46 941 l 1
 0 864 l 1
 41 864 l 1
 41 870 l 1
137 870 m 1
 91 947 l 1
 50 947 l 1
 50 941 l 1
 96 864 l 1
 137 864 l 1
 137 870 l 1
EndSplineSet
EndChar

StartChar: uni0423
Encoding: 1059 1059 97
Width: 236
Flags: W
LayerCount: 2
Fore
SplineSet
160 0 m 1
 160 10 l 1
 118 10 l 1
 152 644 l 2
 156 721 175 741 194 741 c 2
 224 741 l 1
 224 806 l 1
 198 806 l 2
 161 806 147 761 145 715 c 2
 125 346 l 1
 97 790 l 1
 130 790 l 1
 130 800 l 1
 5 800 l 1
 5 790 l 1
 32 790 l 1
 61 332 l 1
 125 332 l 1
 108 10 l 1
 65 10 l 1
 65 0 l 1
 160 0 l 1
EndSplineSet
EndChar

StartChar: paragraph
Encoding: 182 182 98
Width: 265
Flags: W
LayerCount: 2
Fore
SplineSet
250 0 m 1
 250 10 l 1
 220 10 l 1
 220 790 l 1
 250 790 l 1
 250 800 l 1
 132 800 l 2
 85 800 45 762 45 715 c 2
 45 215 l 2
 45 171 60 135 100 130 c 1
 100 10 l 1
 80 10 l 1
 80 0 l 1
 127 0 l 1
 127 10 l 1
 110 10 l 1
 110 775 l 2
 110 786 121 790 132 790 c 2
 155 790 l 1
 155 10 l 1
 138 10 l 1
 138 0 l 1
 250 0 l 1
EndSplineSet
EndChar

StartChar: periodcentered
Encoding: 183 183 99
Width: 159
Flags: W
LayerCount: 2
Fore
SplineSet
37 400 m 0
 37 425 57 445 81 445 c 0
 105 445 125 425 125 400 c 0
 125 375 105 355 81 355 c 0
 57 355 37 375 37 400 c 0
EndSplineSet
EndChar

StartChar: guillemotright
Encoding: 187 187 102
Width: 230
Flags: W
LayerCount: 2
Fore
SplineSet
202 398 m 1
 111 147 l 1
 105 147 l 1
 149 400 l 1
 105 649 l 1
 111 649 l 1
 202 402 l 1
 202 398 l 1
122 398 m 1
 31 147 l 1
 25 147 l 1
 69 400 l 1
 25 649 l 1
 31 649 l 1
 122 402 l 1
 122 398 l 1
EndSplineSet
EndChar

StartChar: afii10105
Encoding: 1112 1112 103
Width: 360
Flags: HW
LayerCount: 2
Fore
SplineSet
310 0 m 1
 50 0 l 1
 50 800 l 1
 310 800 l 1
 310 0 l 1
190 401 m 1
 290 40 l 1
 290 762 l 1
 190 401 l 1
169 401 m 1
 70 762 l 1
 70 40 l 1
 169 401 l 1
180 362 m 1
 86 20 l 1
 274 20 l 1
 180 362 l 1
86 780 m 1
 180 440 l 1
 273 780 l 1
 86 780 l 1
EndSplineSet
EndChar

StartChar: afii10054
Encoding: 1029 1029 104
Width: 245
Flags: W
LayerCount: 2
Fore
SplineSet
199 481 m 2
 204 485 198 493 193 489 c 0
 175 475 143 454 122 454 c 0
 111 454 100 459 100 470 c 2
 100 787 l 2
 100 798 111 803 122 803 c 0
 134 803 145 798 145 787 c 2
 145 595 l 1
 115 595 l 1
 115 585 l 1
 240 585 l 1
 240 595 l 1
 210 595 l 1
 210 727 l 2
 210 774 169 812 122 812 c 0
 74 812 35 774 35 727 c 2
 35 520 l 2
 35 473 74 444 122 444 c 0
 128 444 136 446 144 449 c 2
 46 368 l 2
 40 364 47 357 52 361 c 0
 69 374 102 396 123 396 c 0
 134 396 145 391 145 380 c 2
 145 13 l 2
 145 2 134 -3 123 -3 c 0
 111 -3 100 2 100 13 c 2
 100 205 l 1
 130 205 l 1
 130 215 l 1
 5 215 l 1
 5 205 l 1
 35 205 l 1
 35 73 l 2
 35 26 76 -12 123 -12 c 0
 171 -12 210 26 210 73 c 2
 210 330 l 2
 210 377 171 406 123 406 c 0
 116 406 109 404 101 401 c 2
 199 481 l 2
EndSplineSet
EndChar

StartChar: afii10102
Encoding: 1109 1109 105
Width: 245
Flags: W
LayerCount: 2
Fore
SplineSet
199 481 m 2
 204 485 198 493 193 489 c 0
 175 475 143 454 122 454 c 0
 111 454 100 459 100 470 c 2
 100 787 l 2
 100 798 111 803 122 803 c 0
 134 803 145 798 145 787 c 2
 145 595 l 1
 115 595 l 1
 115 585 l 1
 240 585 l 1
 240 595 l 1
 210 595 l 1
 210 727 l 2
 210 774 169 812 122 812 c 0
 74 812 35 774 35 727 c 2
 35 520 l 2
 35 473 74 444 122 444 c 0
 128 444 136 446 144 449 c 2
 46 368 l 2
 40 364 47 357 52 361 c 0
 69 374 102 396 123 396 c 0
 134 396 145 391 145 380 c 2
 145 13 l 2
 145 2 134 -3 123 -3 c 0
 111 -3 100 2 100 13 c 2
 100 205 l 1
 130 205 l 1
 130 215 l 1
 5 215 l 1
 5 205 l 1
 35 205 l 1
 35 73 l 2
 35 26 76 -12 123 -12 c 0
 171 -12 210 26 210 73 c 2
 210 330 l 2
 210 377 171 406 123 406 c 0
 116 406 109 404 101 401 c 2
 199 481 l 2
EndSplineSet
EndChar

StartChar: .null
Encoding: 0 0 106
Width: 360
Flags: W
LayerCount: 2
Fore
SplineSet
310 0 m 1
 50 0 l 1
 50 800 l 1
 310 800 l 1
 310 0 l 1
190 401 m 1
 290 40 l 1
 290 762 l 1
 190 401 l 1
169 401 m 1
 70 762 l 1
 70 40 l 1
 169 401 l 1
180 362 m 1
 86 20 l 1
 274 20 l 1
 180 362 l 1
86 780 m 1
 180 440 l 1
 273 780 l 1
 86 780 l 1
EndSplineSet
EndChar

StartChar: afii10017
Encoding: 1040 1040 107
Width: 245
Flags: W
LayerCount: 2
Fore
SplineSet
240 0 m 1
 240 10 l 1
 210 10 l 1
 210 790 l 1
 240 790 l 1
 240 800 l 1
 130 800 l 1
 130 790 l 1
 145 790 l 1
 145 759 l 2
 144 761 143 763 143 765 c 0
 135 785 122 803 101 803 c 0
 71 803 43 767 43 730 c 0
 43 707 45 693 52 673 c 0
 58 657 69 628 74 616 c 0
 82 598 84 591 84 571 c 0
 84 552 80 531 74 523 c 0
 72 520 55 496 55 496 c 2
 51 490 59 484 63 490 c 2
 63 490 80 514 82 517 c 0
 88 527 101 546 110 566 c 0
 121 591 126 610 126 639 c 0
 126 662 122 674 114 696 c 0
 107 716 102 721 93 741 c 0
 88 751 84 761 84 773 c 0
 84 783 91 793 104 793 c 0
 116 793 127 777 133 761 c 0
 138 746 142 732 145 719 c 2
 145 595 l 1
 139 572 130 547 117 525 c 0
 100 496 89 484 71 459 c 0
 52 433 45 418 46 383 c 0
 47 363 59 342 91 342 c 2
 104 342 l 1
 71 306 35 265 35 212 c 2
 35 10 l 1
 5 10 l 1
 5 0 l 1
 117 0 l 1
 117 10 l 1
 100 10 l 1
 100 268 l 2
 100 293 98 319 114 338 c 0
 121 347 134 362 145 375 c 1
 145 10 l 1
 128 10 l 1
 128 0 l 1
 240 0 l 1
125 519 m 0
 133 532 140 545 145 559 c 1
 145 390 l 1
 136 379 125 365 113 352 c 1
 109 352 l 2
 102 352 100 360 100 368 c 2
 100 433 l 2
 100 466 108 490 125 519 c 0
EndSplineSet
EndChar

StartChar: afii10018
Encoding: 1041 1041 108
Width: 245
Flags: W
LayerCount: 2
Fore
SplineSet
5 0 m 1
 240 0 l 1
 240 10 l 1
 210 10 l 1
 210 394 l 1
 184 399 158 410 136 433 c 0
 112 457 102 479 100 510 c 2
 100 790 l 1
 127 790 l 1
 127 769 132 719 141 683 c 0
 153 631 162 610 181 561 c 0
 185 550 192 537 194 532 c 0
 195 529 202 532 201 535 c 0
 198 543 194 552 192 563 c 0
 182 611 181 637 181 685 c 0
 181 721 189 768 193 790 c 0
 194 794 194 797 193 800 c 2
 5 800 l 1
 5 790 l 1
 35 790 l 1
 35 10 l 1
 5 10 l 1
 5 0 l 1
128 425 m 0
 133 419 139 415 145 410 c 1
 145 10 l 1
 100 10 l 1
 100 464 l 1
 106 450 115 438 128 425 c 0
EndSplineSet
EndChar

StartChar: afii10019
Encoding: 1042 1042 109
Width: 245
Flags: W
LayerCount: 2
Fore
SplineSet
5 0 m 1
 240 0 l 1
 240 10 l 1
 210 10 l 1
 210 385 l 1
 187 389 160 399 145 412 c 0
 127 427 114 443 105 459 c 1
 108 466 112 473 114 481 c 1
 114 480 115 480 115 479 c 0
 121 452 144 442 164 442 c 0
 185 442 210 472 210 510 c 2
 210 727 l 2
 210 774 169 812 122 812 c 0
 74 812 35 774 35 727 c 2
 35 10 l 1
 5 10 l 1
 5 0 l 1
139 403 m 0
 141 401 142 399 145 398 c 2
 145 10 l 1
 100 10 l 1
 100 447 l 1
 109 432 122 417 139 403 c 0
123 512 m 0
 124 519 114 521 113 514 c 0
 110 500 105 485 100 471 c 1
 100 787 l 2
 100 798 111 803 122 803 c 0
 134 803 145 798 145 787 c 2
 145 487 l 2
 145 477 143 465 138 462 c 1
 131 464 124 479 123 492 c 0
 122 499 123 508 123 512 c 0
EndSplineSet
EndChar

StartChar: afii10020
Encoding: 1043 1043 110
Width: 196
Flags: W
LayerCount: 2
Fore
SplineSet
179 530 m 0
 175 540 172 548 170 560 c 0
 164 590 163 623 163 658 c 0
 163 712 169 754 179 790 c 0
 180 794 179 797 178 800 c 2
 5 800 l 1
 5 790 l 1
 35 790 l 1
 35 10 l 1
 5 10 l 1
 5 0 l 1
 130 0 l 1
 130 10 l 1
 100 10 l 1
 100 790 l 1
 114 790 l 1
 114 769 118 724 125 685 c 0
 134 635 145 598 159 557 c 0
 162 547 168 534 172 527 c 0
 174 523 180 527 179 530 c 0
EndSplineSet
EndChar

StartChar: afii10021
Encoding: 1044 1044 111
Width: 240
Flags: W
LayerCount: 2
Fore
SplineSet
239 -255 m 0
 236 -247 232 -238 230 -227 c 0
 220 -179 219 -153 219 -105 c 0
 219 -69 227 -22 231 0 c 0
 232 4 232 7 231 10 c 2
 201 10 l 1
 201 790 l 1
 231 790 l 1
 231 800 l 1
 121 800 l 1
 121 790 l 1
 136 790 l 1
 136 759 l 2
 135 761 134 763 134 765 c 0
 126 785 112 803 93 803 c 0
 63 803 36 767 36 730 c 0
 36 707 37 693 44 673 c 0
 50 657 64 628 69 616 c 0
 77 598 82 586 82 566 c 0
 82 547 78 526 72 518 c 0
 70 515 53 491 53 491 c 2
 49 485 57 479 61 485 c 2
 61 485 78 509 80 512 c 0
 86 522 99 541 108 561 c 0
 119 586 121 610 121 639 c 0
 121 662 114 674 106 696 c 0
 99 716 95 721 86 741 c 0
 81 751 77 761 77 773 c 0
 77 783 83 793 96 793 c 0
 108 793 118 777 124 761 c 0
 129 746 133 732 136 718 c 2
 136 582 l 1
 132 557 126 531 119 504 c 0
 111 475 104 462 96 433 c 0
 87 402 85 365 82 322 c 0
 80 289 78 187 78 139 c 0
 78 98 73 29 62 10 c 1
 9 10 l 2
 8 7 8 4 9 0 c 0
 13 -22 21 -69 21 -105 c 0
 21 -153 20 -179 10 -227 c 0
 8 -238 4 -247 1 -255 c 0
 0 -258 7 -261 8 -258 c 0
 10 -253 17 -240 21 -229 c 0
 40 -180 49 -159 61 -107 c 0
 69 -70 74 -21 75 0 c 1
 165 0 l 1
 165 -21 170 -70 179 -107 c 0
 191 -159 200 -180 219 -229 c 0
 223 -240 230 -253 232 -258 c 0
 233 -261 240 -258 239 -255 c 0
129 502 m 0
 131 511 134 520 136 529 c 2
 136 10 l 1
 73 10 l 1
 82 36 88 100 88 139 c 0
 88 187 90 289 92 322 c 0
 95 363 97 400 106 431 c 0
 114 460 121 473 129 502 c 0
EndSplineSet
EndChar

StartChar: afii10022
Encoding: 1045 1045 112
Width: 245
Flags: W
LayerCount: 2
Fore
SplineSet
107 491 m 2
 100 480 l 1
 100 787 l 2
 100 798 111 803 122 803 c 0
 134 803 145 798 145 787 c 2
 145 595 l 1
 115 595 l 1
 115 585 l 1
 240 585 l 1
 240 595 l 1
 210 595 l 1
 210 727 l 2
 210 774 169 812 122 812 c 0
 74 812 35 774 35 727 c 2
 35 287 l 2
 35 250 44 228 57 205 c 0
 71 178 104 149 127 109 c 0
 137 91 140 73 142 55 c 0
 141 46 136 24 122 8 c 0
 114 2 105 -2 96 -2 c 0
 90 -2 84 0 78 3 c 0
 74 9 73 12 73 18 c 0
 73 34 80 47 88 61 c 0
 99 79 103 91 103 106 c 0
 103 121 97 138 78 138 c 0
 44 138 30 102 30 76 c 0
 30 39 59 -12 96 -12 c 0
 142 -12 172 60 188 114 c 0
 211 196 213 294 214 345 c 1
 240 345 l 1
 240 355 l 1
 115 355 l 1
 115 345 l 1
 145 345 l 1
 145 93 l 2
 143 100 140 107 136 115 c 0
 129 128 125 140 118 156 c 0
 106 184 100 218 100 260 c 2
 100 460 l 1
 110 476 l 2
 115 484 124 494 131 494 c 0
 142 494 145 485 145 474 c 2
 145 435 l 1
 212 435 l 1
 212 458 l 2
 212 505 181 519 160 519 c 0
 141 519 122 512 107 491 c 2
EndSplineSet
EndChar

StartChar: afii10024
Encoding: 1046 1046 113
Width: 355
Flags: W
LayerCount: 2
Fore
SplineSet
350 0 m 1
 350 10 l 1
 320 10 l 1
 320 339 l 2
 320 387 298 416 253 419 c 1
 261 427 265 440 265 454 c 2
 265 701 l 2
 265 720 270 741 293 741 c 2
 326 741 l 1
 326 806 l 1
 306 806 l 2
 262 806 255 770 255 741 c 2
 255 454 l 2
 255 436 247 419 228 419 c 2
 210 419 l 1
 210 790 l 1
 240 790 l 1
 240 800 l 1
 115 800 l 1
 115 790 l 1
 145 790 l 1
 145 419 l 1
 124 419 l 2
 107 420 100 437 100 454 c 2
 100 741 l 2
 100 770 93 806 49 806 c 2
 29 806 l 1
 29 741 l 1
 62 741 l 2
 85 741 90 720 90 701 c 2
 90 454 l 2
 90 440 94 427 102 419 c 1
 56 416 35 387 35 339 c 2
 35 10 l 1
 5 10 l 1
 5 0 l 1
 117 0 l 1
 117 10 l 1
 100 10 l 1
 100 393 l 2
 100 405 109 409 119 409 c 2
 123 409 l 1
 127 409 l 1
 145 409 l 1
 145 10 l 1
 128 10 l 1
 128 0 l 1
 227 0 l 1
 227 10 l 1
 210 10 l 1
 210 409 l 1
 228 409 l 1
 231 409 l 1
 236 409 l 2
 246 409 255 405 255 393 c 2
 255 10 l 1
 238 10 l 1
 238 0 l 1
 350 0 l 1
EndSplineSet
EndChar

StartChar: afii10025
Encoding: 1047 1047 114
Width: 245
Flags: W
LayerCount: 2
Fore
SplineSet
210 727 m 2
 210 774 171 812 123 812 c 0
 76 812 35 774 35 727 c 2
 35 595 l 1
 5 595 l 1
 5 585 l 1
 130 585 l 1
 130 595 l 1
 100 595 l 1
 100 787 l 2
 100 798 111 803 123 803 c 0
 134 803 145 798 145 787 c 2
 145 530 l 2
 145 520 136 515 126 514 c 2
 123 514 l 2
 76 514 33 486 33 439 c 2
 33 422 l 1
 100 422 l 1
 100 489 l 2
 100 500 111 505 123 505 c 2
 126 505 l 2
 136 504 145 499 145 489 c 2
 145 260 l 2
 145 218 139 184 127 156 c 0
 120 140 116 128 109 115 c 0
 105 107 102 100 100 93 c 2
 100 345 l 1
 130 345 l 1
 130 355 l 1
 5 355 l 1
 5 345 l 1
 31 345 l 1
 32 294 33 196 57 114 c 0
 73 60 103 -12 149 -12 c 0
 186 -12 215 39 215 76 c 0
 215 102 201 138 167 138 c 0
 148 138 142 121 142 106 c 0
 142 91 146 79 157 61 c 0
 165 47 172 34 172 18 c 0
 172 12 171 9 167 3 c 0
 161 0 155 -2 149 -2 c 0
 140 -2 131 2 123 8 c 0
 109 24 104 46 103 55 c 0
 105 73 108 91 118 109 c 0
 141 149 174 178 188 205 c 0
 201 228 210 250 210 287 c 2
 210 439 l 2
 210 475 187 500 155 509 c 1
 187 519 210 544 210 580 c 2
 210 727 l 2
EndSplineSet
EndChar

StartChar: afii10026
Encoding: 1048 1048 115
Width: 245
Flags: W
LayerCount: 2
Fore
SplineSet
240 0 m 1
 240 10 l 1
 210 10 l 1
 210 790 l 1
 240 790 l 1
 240 800 l 1
 128 800 l 1
 128 790 l 1
 145 790 l 1
 145 605 l 1
 100 230 l 1
 100 790 l 1
 117 790 l 1
 117 800 l 1
 5 800 l 1
 5 790 l 1
 35 790 l 1
 35 10 l 1
 5 10 l 1
 5 0 l 1
 117 0 l 1
 117 10 l 1
 100 10 l 1
 100 145 l 1
 145 520 l 1
 145 10 l 1
 128 10 l 1
 128 0 l 1
 240 0 l 1
EndSplineSet
EndChar

StartChar: afii10027
Encoding: 1049 1049 116
Width: 245
Flags: W
LayerCount: 2
Fore
SplineSet
240 0 m 1
 240 10 l 1
 210 10 l 1
 210 790 l 1
 240 790 l 1
 240 800 l 1
 128 800 l 1
 128 790 l 1
 145 790 l 1
 145 605 l 1
 100 230 l 1
 100 790 l 1
 117 790 l 1
 117 800 l 1
 5 800 l 1
 5 790 l 1
 35 790 l 1
 35 10 l 1
 5 10 l 1
 5 0 l 1
 117 0 l 1
 117 10 l 1
 100 10 l 1
 100 145 l 1
 145 520 l 1
 145 10 l 1
 128 10 l 1
 128 0 l 1
 240 0 l 1
121 807 m 4
 154 807 181 838 181 864 c 6
 181 872 l 5
 138 872 l 5
 138 826 l 6
 138 817 129 815 121 815 c 4
 113 815 104 817 104 826 c 6
 104 872 l 5
 61 872 l 5
 61 864 l 6
 61 838 88 807 121 807 c 4
EndSplineSet
EndChar

StartChar: afii10028
Encoding: 1050 1050 117
Width: 245
Flags: W
LayerCount: 2
Fore
SplineSet
240 0 m 1
 240 10 l 1
 210 10 l 1
 210 339 l 2
 210 387 188 416 143 419 c 1
 151 427 155 440 155 454 c 2
 155 701 l 2
 155 720 160 741 183 741 c 2
 216 741 l 1
 216 806 l 1
 196 806 l 2
 152 806 145 770 145 741 c 2
 145 454 l 2
 145 437 138 420 121 419 c 2
 100 419 l 1
 100 790 l 1
 130 790 l 1
 130 800 l 1
 5 800 l 1
 5 790 l 1
 35 790 l 1
 35 10 l 1
 5 10 l 1
 5 0 l 1
 117 0 l 1
 117 10 l 1
 100 10 l 1
 100 409 l 1
 118 409 l 1
 121 409 l 1
 126 409 l 2
 136 409 145 405 145 393 c 2
 145 10 l 1
 128 10 l 1
 128 0 l 1
 240 0 l 1
EndSplineSet
EndChar

StartChar: afii10029
Encoding: 1051 1051 118
Width: 245
Flags: W
LayerCount: 2
Fore
SplineSet
240 0 m 1
 240 10 l 1
 210 10 l 1
 210 790 l 1
 240 790 l 1
 240 800 l 1
 130 800 l 1
 130 790 l 1
 145 790 l 1
 145 759 l 2
 144 761 143 763 143 765 c 0
 135 785 121 803 102 803 c 0
 72 803 45 767 45 730 c 0
 45 707 48 693 55 673 c 0
 61 657 73 628 78 616 c 0
 86 598 88 586 88 566 c 0
 88 547 84 526 78 518 c 0
 76 515 59 491 59 491 c 2
 55 485 63 479 67 485 c 2
 67 485 84 509 86 512 c 0
 92 522 105 541 114 561 c 0
 125 586 130 610 130 639 c 0
 130 662 125 674 117 696 c 0
 110 716 104 721 95 741 c 0
 90 751 86 761 86 773 c 0
 86 783 92 793 105 793 c 0
 117 793 127 777 133 761 c 0
 138 746 142 732 145 719 c 2
 145 578 l 1
 141 554 134 528 122 503 c 0
 117 492 112 483 107 474 c 0
 93 450 76 422 66 407 c 0
 62 401 35 369 35 322 c 2
 35 10 l 1
 5 10 l 1
 5 0 l 1
 117 0 l 1
 117 10 l 1
 100 10 l 1
 100 378 l 2
 100 399 105 447 115 466 c 0
 121 478 126 487 131 498 c 0
 136 509 141 520 145 532 c 1
 145 10 l 1
 128 10 l 1
 128 0 l 1
 240 0 l 1
EndSplineSet
EndChar

StartChar: afii10030
Encoding: 1052 1052 119
Width: 355
Flags: W
LayerCount: 2
Fore
SplineSet
350 0 m 1
 350 10 l 1
 320 10 l 1
 320 790 l 1
 350 790 l 1
 350 800 l 1
 238 800 l 1
 238 790 l 1
 255 790 l 1
 255 605 l 1
 210 230 l 1
 210 790 l 1
 227 790 l 1
 227 800 l 1
 128 800 l 1
 128 790 l 1
 145 790 l 1
 145 759 l 2
 144 761 143 763 143 765 c 0
 135 785 121 803 102 803 c 0
 72 803 45 767 45 730 c 0
 45 707 48 693 55 673 c 0
 61 657 73 628 78 616 c 0
 86 598 88 586 88 566 c 0
 88 547 84 526 78 518 c 0
 76 515 59 491 59 491 c 2
 55 485 63 479 67 485 c 2
 67 485 84 509 86 512 c 0
 92 522 105 541 114 561 c 0
 125 586 130 610 130 639 c 0
 130 662 125 674 117 696 c 0
 110 716 104 721 95 741 c 0
 90 751 86 761 86 773 c 0
 86 783 92 793 105 793 c 0
 117 793 127 777 133 761 c 0
 138 746 142 732 145 719 c 2
 145 578 l 1
 141 554 134 528 122 503 c 0
 117 492 112 483 107 474 c 0
 93 450 76 422 66 407 c 0
 62 401 35 369 35 322 c 2
 35 10 l 1
 5 10 l 1
 5 0 l 1
 117 0 l 1
 117 10 l 1
 100 10 l 1
 100 378 l 2
 100 399 105 447 115 466 c 0
 121 478 126 487 131 498 c 0
 136 509 141 520 145 532 c 1
 145 10 l 1
 128 10 l 1
 128 0 l 1
 227 0 l 1
 227 10 l 1
 210 10 l 1
 210 145 l 1
 255 520 l 1
 255 10 l 1
 238 10 l 1
 238 0 l 1
 350 0 l 1
EndSplineSet
EndChar

StartChar: afii10031
Encoding: 1053 1053 120
Width: 245
Flags: W
LayerCount: 2
Fore
SplineSet
240 0 m 1
 240 10 l 1
 210 10 l 1
 210 790 l 1
 240 790 l 1
 240 800 l 1
 128 800 l 1
 128 790 l 1
 145 790 l 1
 145 405 l 1
 100 405 l 1
 100 790 l 1
 117 790 l 1
 117 800 l 1
 5 800 l 1
 5 790 l 1
 35 790 l 1
 35 10 l 1
 5 10 l 1
 5 0 l 1
 117 0 l 1
 117 10 l 1
 100 10 l 1
 100 395 l 1
 145 395 l 1
 145 10 l 1
 128 10 l 1
 128 0 l 1
 240 0 l 1
EndSplineSet
EndChar

StartChar: afii10032
Encoding: 1054 1054 121
Width: 245
Flags: W
LayerCount: 2
Fore
SplineSet
210 727 m 2
 210 774 169 812 122 812 c 0
 74 812 35 774 35 727 c 2
 35 73 l 2
 35 26 74 -12 122 -12 c 0
 169 -12 210 26 210 73 c 2
 210 727 l 2
100 787 m 2
 100 798 111 803 122 803 c 0
 134 803 145 798 145 787 c 2
 145 13 l 2
 145 2 134 -3 122 -3 c 0
 111 -3 100 2 100 13 c 2
 100 787 l 2
EndSplineSet
EndChar

StartChar: afii10033
Encoding: 1055 1055 122
Width: 245
Flags: W
LayerCount: 2
Fore
SplineSet
117 0 m 1
 117 10 l 1
 100 10 l 1
 100 790 l 1
 145 790 l 1
 145 10 l 1
 128 10 l 1
 128 0 l 1
 240 0 l 1
 240 10 l 1
 210 10 l 1
 210 790 l 1
 240 790 l 1
 240 800 l 1
 5 800 l 1
 5 790 l 1
 35 790 l 1
 35 10 l 1
 5 10 l 1
 5 0 l 1
 117 0 l 1
EndSplineSet
EndChar

StartChar: afii10034
Encoding: 1056 1056 123
Width: 245
Flags: W
LayerCount: 2
Fore
SplineSet
130 0 m 1
 130 10 l 1
 100 10 l 1
 100 317 l 2
 103 341 109 364 119 394 c 0
 121 400 122 406 124 412 c 1
 132 395 148 388 163 388 c 0
 191 388 210 435 210 472 c 2
 210 727 l 2
 210 774 169 812 122 812 c 0
 74 812 35 774 35 727 c 2
 35 10 l 1
 5 10 l 1
 5 0 l 1
 130 0 l 1
129 468 m 1
 129 469 l 1
 129 476 l 2
 129 485 119 484 119 476 c 2
 119 469 l 1
 119 468 l 1
 119 455 l 2
 118 439 116 418 109 398 c 0
 105 388 102 379 100 370 c 2
 100 787 l 2
 100 798 111 803 122 803 c 0
 134 803 145 798 145 787 c 2
 145 435 l 2
 145 425 145 413 140 409 c 1
 134 411 129 425 129 432 c 2
 129 468 l 1
EndSplineSet
EndChar

StartChar: afii10035
Encoding: 1057 1057 124
Width: 245
Flags: W
LayerCount: 2
Fore
SplineSet
240 345 m 1
 240 355 l 1
 115 355 l 1
 115 345 l 1
 145 345 l 1
 145 93 l 2
 143 100 140 107 136 115 c 0
 129 128 125 140 118 156 c 0
 106 184 100 218 100 260 c 2
 100 787 l 2
 100 798 111 803 122 803 c 0
 134 803 145 798 145 787 c 2
 145 595 l 1
 115 595 l 1
 115 585 l 1
 240 585 l 1
 240 595 l 1
 210 595 l 1
 210 727 l 2
 210 774 169 812 122 812 c 0
 74 812 35 774 35 727 c 2
 35 287 l 2
 35 250 44 228 57 205 c 0
 71 178 104 149 127 109 c 0
 137 91 140 73 142 55 c 0
 141 46 136 24 122 8 c 0
 114 2 105 -2 96 -2 c 0
 90 -2 84 0 78 3 c 0
 74 9 73 12 73 18 c 0
 73 34 80 47 88 61 c 0
 99 79 103 91 103 106 c 0
 103 121 97 138 78 138 c 0
 44 138 30 102 30 76 c 0
 30 39 59 -12 96 -12 c 0
 142 -12 172 60 188 114 c 0
 211 196 213 294 214 345 c 1
 240 345 l 1
EndSplineSet
EndChar

StartChar: afii10036
Encoding: 1058 1058 125
Width: 247
Flags: W
LayerCount: 2
Fore
SplineSet
230 530 m 0
 226 540 223 548 221 560 c 0
 215 590 214 623 214 658 c 0
 214 712 220 754 230 790 c 0
 231 794 230 797 229 800 c 2
 18 800 l 2
 17 797 16 794 17 790 c 0
 27 754 33 712 33 658 c 0
 33 623 32 590 26 560 c 0
 24 548 21 540 17 530 c 0
 16 527 22 523 24 527 c 0
 28 534 34 547 37 557 c 0
 51 598 62 635 71 685 c 0
 77 724 81 769 82 790 c 1
 91 790 l 1
 91 10 l 1
 61 10 l 1
 61 0 l 1
 186 0 l 1
 186 10 l 1
 156 10 l 1
 156 790 l 1
 165 790 l 1
 165 769 169 724 176 685 c 0
 185 635 196 598 210 557 c 0
 213 547 219 534 223 527 c 0
 225 523 231 527 230 530 c 0
EndSplineSet
EndChar

StartChar: uniA64A
Encoding: 42570 42570 126
Width: 236
Flags: W
LayerCount: 2
Fore
SplineSet
44 158 m 2
 44 118 l 2
 44 54 72 -12 123 -12 c 0
 174 -12 203 54 203 118 c 2
 203 158 l 2
 203 217 178 278 134 287 c 1
 152 644 l 2
 156 721 175 741 194 741 c 2
 224 741 l 1
 224 806 l 1
 198 806 l 2
 161 806 147 763 145 715 c 2
 127 342 l 1
 126 342 l 1
 97 790 l 1
 130 790 l 1
 130 800 l 1
 5 800 l 1
 5 790 l 1
 32 790 l 1
 61 332 l 1
 126 332 l 1
 124 288 l 1
 123 288 l 2
 72 288 44 222 44 158 c 2
149 252 m 2
 149 24 l 2
 149 4 133 -3 123 -3 c 0
 113 -3 98 4 98 24 c 2
 98 252 l 2
 98 272 113 279 123 279 c 2
 124 279 l 1
 112 30 l 2
 112 23 122 23 122 30 c 2
 134 276 l 1
 141 273 149 265 149 252 c 2
EndSplineSet
EndChar

StartChar: uni0424
Encoding: 1060 1060 127
Width: 355
Flags: W
LayerCount: 2
Fore
SplineSet
320 175 m 2
 320 675 l 2
 320 722 280 760 233 760 c 2
 210 760 l 1
 210 790 l 1
 240 790 l 1
 240 800 l 1
 115 800 l 1
 115 790 l 1
 145 790 l 1
 145 760 l 1
 122 760 l 2
 75 760 35 722 35 675 c 2
 35 175 l 2
 35 128 75 90 122 90 c 2
 145 90 l 1
 145 10 l 1
 115 10 l 1
 115 0 l 1
 240 0 l 1
 240 10 l 1
 210 10 l 1
 210 90 l 1
 233 90 l 2
 280 90 320 128 320 175 c 2
233 100 m 2
 210 100 l 1
 210 750 l 1
 233 750 l 2
 244 750 255 746 255 735 c 2
 255 115 l 2
 255 104 244 100 233 100 c 2
100 735 m 2
 100 746 111 750 122 750 c 2
 145 750 l 1
 145 100 l 1
 122 100 l 2
 111 100 100 104 100 115 c 2
 100 735 l 2
EndSplineSet
EndChar

StartChar: afii10039
Encoding: 1061 1061 128
Width: 245
Flags: W
LayerCount: 2
Fore
SplineSet
100 0 m 1
 100 10 l 1
 58 10 l 1
 101 320 l 1
 144 10 l 1
 111 10 l 1
 111 0 l 1
 240 0 l 1
 240 10 l 1
 209 10 l 1
 133 554 l 1
 146 647 l 2
 156 716 172 741 194 741 c 2
 224 741 l 1
 224 806 l 1
 198 806 l 2
 161 806 152 768 145 715 c 2
 128 591 l 1
 100 790 l 1
 130 790 l 1
 130 800 l 1
 5 800 l 1
 5 790 l 1
 35 790 l 1
 96 356 l 1
 48 10 l 1
 5 10 l 1
 5 0 l 1
 100 0 l 1
EndSplineSet
EndChar

StartChar: afii10040
Encoding: 1062 1062 129
Width: 255
Flags: W
LayerCount: 2
Fore
SplineSet
258 -255 m 0
 255 -247 251 -238 249 -227 c 0
 239 -179 238 -153 238 -105 c 0
 238 -69 246 -22 250 0 c 0
 251 4 251 7 250 10 c 2
 210 10 l 1
 210 790 l 1
 240 790 l 1
 240 800 l 1
 128 800 l 1
 128 790 l 1
 145 790 l 1
 145 10 l 1
 100 10 l 1
 100 790 l 1
 117 790 l 1
 117 800 l 1
 5 800 l 1
 5 790 l 1
 35 790 l 1
 35 10 l 1
 5 10 l 1
 5 0 l 1
 184 0 l 1
 184 -21 189 -70 198 -107 c 0
 210 -159 219 -180 238 -229 c 0
 242 -240 249 -253 251 -258 c 0
 252 -261 259 -258 258 -255 c 0
EndSplineSet
EndChar

StartChar: afii10041
Encoding: 1063 1063 130
Width: 245
Flags: W
LayerCount: 2
Fore
SplineSet
240 0 m 1
 240 10 l 1
 210 10 l 1
 210 790 l 1
 240 790 l 1
 240 800 l 1
 128 800 l 1
 128 790 l 1
 145 790 l 1
 145 375 l 1
 119 375 l 2
 109 375 100 379 100 391 c 2
 100 790 l 1
 117 790 l 1
 117 800 l 1
 5 800 l 1
 5 790 l 1
 35 790 l 1
 35 445 l 2
 35 394 59 365 109 365 c 2
 145 365 l 1
 145 10 l 1
 115 10 l 1
 115 0 l 1
 240 0 l 1
EndSplineSet
EndChar

StartChar: afii10042
Encoding: 1064 1064 131
Width: 355
Flags: W
LayerCount: 2
Fore
SplineSet
350 790 m 1
 350 800 l 1
 238 800 l 1
 238 790 l 1
 255 790 l 1
 255 10 l 1
 210 10 l 1
 210 790 l 1
 227 790 l 1
 227 800 l 1
 128 800 l 1
 128 790 l 1
 145 790 l 1
 145 10 l 1
 100 10 l 1
 100 790 l 1
 117 790 l 1
 117 800 l 1
 5 800 l 1
 5 790 l 1
 35 790 l 1
 35 10 l 1
 5 10 l 1
 5 0 l 1
 350 0 l 1
 350 10 l 1
 320 10 l 1
 320 790 l 1
 350 790 l 1
EndSplineSet
EndChar

StartChar: afii10043
Encoding: 1065 1065 132
Width: 365
Flags: W
LayerCount: 2
Fore
SplineSet
350 790 m 1
 350 800 l 1
 238 800 l 1
 238 790 l 1
 255 790 l 1
 255 10 l 1
 210 10 l 1
 210 790 l 1
 227 790 l 1
 227 800 l 1
 128 800 l 1
 128 790 l 1
 145 790 l 1
 145 10 l 1
 100 10 l 1
 100 790 l 1
 117 790 l 1
 117 800 l 1
 5 800 l 1
 5 790 l 1
 35 790 l 1
 35 10 l 1
 5 10 l 1
 5 0 l 1
 294 0 l 1
 294 -21 299 -70 308 -107 c 0
 320 -159 329 -180 348 -229 c 0
 352 -240 359 -253 361 -258 c 0
 362 -261 369 -258 368 -255 c 0
 365 -247 361 -238 359 -227 c 0
 349 -179 348 -153 348 -105 c 0
 348 -69 356 -22 360 0 c 0
 361 4 361 7 360 10 c 2
 320 10 l 1
 320 790 l 1
 350 790 l 1
EndSplineSet
EndChar

StartChar: afii10044
Encoding: 1066 1066 133
Width: 305
Flags: W
LayerCount: 2
Fore
SplineSet
300 0 m 1
 300 10 l 1
 270 10 l 1
 270 394 l 1
 244 399 218 410 196 433 c 0
 172 456 162 477 160 507 c 2
 160 790 l 1
 190 790 l 1
 190 800 l 1
 19 800 l 2
 18 797 18 794 19 790 c 0
 23 768 31 721 31 685 c 0
 31 637 30 611 20 563 c 0
 18 552 14 543 11 535 c 0
 10 532 17 529 18 532 c 0
 20 537 27 550 31 561 c 0
 50 610 59 631 71 683 c 0
 79 719 84 769 85 790 c 1
 95 790 l 1
 95 10 l 1
 65 10 l 1
 65 0 l 1
 300 0 l 1
188 425 m 0
 193 419 199 415 205 410 c 1
 205 10 l 1
 160 10 l 1
 160 464 l 1
 166 450 175 438 188 425 c 0
EndSplineSet
EndChar

StartChar: afii10045
Encoding: 1067 1067 134
Width: 355
Flags: W
LayerCount: 2
Fore
SplineSet
5 0 m 1
 227 0 l 1
 227 10 l 1
 210 10 l 1
 210 394 l 1
 184 399 158 410 136 433 c 0
 112 457 102 479 100 510 c 2
 100 790 l 1
 130 790 l 1
 130 800 l 1
 5 800 l 1
 5 790 l 1
 35 790 l 1
 35 10 l 1
 5 10 l 1
 5 0 l 1
350 0 m 1
 350 10 l 1
 320 10 l 1
 320 790 l 1
 350 790 l 1
 350 800 l 1
 238 800 l 1
 238 790 l 1
 255 790 l 1
 255 10 l 1
 238 10 l 1
 238 0 l 1
 350 0 l 1
128 425 m 0
 133 419 139 415 145 410 c 1
 145 10 l 1
 100 10 l 1
 100 464 l 1
 106 450 115 438 128 425 c 0
EndSplineSet
EndChar

StartChar: afii10046
Encoding: 1068 1068 135
Width: 245
Flags: W
LayerCount: 2
Fore
SplineSet
5 0 m 1
 240 0 l 1
 240 10 l 1
 210 10 l 1
 210 394 l 1
 184 399 158 410 136 433 c 0
 112 457 102 479 100 510 c 2
 100 790 l 1
 130 790 l 1
 130 800 l 1
 5 800 l 1
 5 790 l 1
 35 790 l 1
 35 10 l 1
 5 10 l 1
 5 0 l 1
128 425 m 0
 133 419 139 415 145 410 c 1
 145 10 l 1
 100 10 l 1
 100 464 l 1
 106 450 115 438 128 425 c 0
EndSplineSet
EndChar

StartChar: uni0462
Encoding: 1122 1122 136
Width: 301
Flags: W
LayerCount: 2
Fore
SplineSet
230 470 m 0
 226 480 223 488 221 500 c 0
 215 530 214 563 214 598 c 0
 214 652 220 694 230 730 c 0
 231 734 230 737 229 740 c 2
 156 740 l 1
 156 790 l 1
 186 790 l 1
 186 800 l 1
 61 800 l 1
 61 790 l 1
 91 790 l 1
 91 740 l 1
 18 740 l 2
 17 737 16 734 17 730 c 0
 27 694 33 652 33 598 c 0
 33 563 32 530 26 500 c 0
 24 488 21 480 17 470 c 0
 16 467 22 463 24 467 c 0
 28 474 34 487 37 497 c 0
 51 538 62 575 71 625 c 0
 77 664 81 709 82 730 c 1
 91 730 l 1
 91 10 l 1
 61 10 l 1
 61 0 l 1
 296 0 l 1
 296 10 l 1
 266 10 l 1
 266 394 l 1
 240 399 214 410 192 433 c 0
 168 457 158 479 156 510 c 2
 156 511 l 1
 156 730 l 1
 165 730 l 1
 165 709 169 664 176 625 c 0
 185 575 196 538 210 497 c 0
 213 487 219 474 223 467 c 0
 225 463 231 467 230 470 c 0
184 425 m 0
 189 419 195 415 201 410 c 1
 201 10 l 1
 156 10 l 1
 156 464 l 1
 162 450 171 438 184 425 c 0
EndSplineSet
EndChar

StartChar: afii10048
Encoding: 1070 1070 137
Width: 355
Flags: W
LayerCount: 2
Fore
SplineSet
320 727 m 2
 320 774 279 812 232 812 c 0
 184 812 145 774 145 727 c 2
 145 405 l 1
 100 405 l 1
 100 790 l 1
 130 790 l 1
 130 800 l 1
 5 800 l 1
 5 790 l 1
 35 790 l 1
 35 10 l 1
 5 10 l 1
 5 0 l 1
 130 0 l 1
 130 10 l 1
 100 10 l 1
 100 395 l 1
 145 395 l 1
 145 73 l 2
 145 26 184 -12 232 -12 c 0
 279 -12 320 26 320 73 c 2
 320 727 l 2
210 787 m 2
 210 798 221 803 232 803 c 0
 244 803 255 798 255 787 c 2
 255 13 l 2
 255 2 244 -3 232 -3 c 0
 221 -3 210 2 210 13 c 2
 210 787 l 2
EndSplineSet
EndChar

StartChar: uniA656
Encoding: 42582 42582 138
Width: 355
Flags: W
LayerCount: 2
Fore
SplineSet
350 790 m 1
 350 800 l 1
 240 800 l 1
 240 790 l 1
 255 790 l 1
 255 759 l 2
 254 761 253 763 253 765 c 0
 245 785 232 803 211 803 c 0
 181 803 153 767 153 730 c 0
 153 708 155 694 161 675 c 1
 100 675 l 1
 100 790 l 1
 117 790 l 1
 117 800 l 1
 5 800 l 1
 5 790 l 1
 35 790 l 1
 35 10 l 1
 5 10 l 1
 5 0 l 1
 117 0 l 1
 117 10 l 1
 100 10 l 1
 100 665 l 1
 165 665 l 1
 171 648 179 626 184 616 c 0
 192 598 194 591 194 571 c 0
 194 552 190 531 184 523 c 0
 182 520 165 496 165 496 c 2
 161 490 169 484 173 490 c 2
 173 490 190 514 192 517 c 0
 198 527 211 546 220 566 c 0
 231 591 236 610 236 639 c 0
 236 662 232 674 224 696 c 0
 217 716 212 721 203 741 c 0
 198 751 194 761 194 773 c 0
 194 783 201 793 214 793 c 0
 226 793 237 777 243 761 c 0
 248 746 252 732 255 719 c 2
 255 595 l 1
 249 572 240 547 227 525 c 0
 210 496 199 484 181 459 c 0
 162 433 155 418 156 383 c 0
 157 363 169 342 201 342 c 2
 214 342 l 1
 181 306 145 265 145 212 c 2
 145 10 l 1
 128 10 l 1
 128 0 l 1
 227 0 l 1
 227 10 l 1
 210 10 l 1
 210 268 l 2
 210 293 208 319 224 338 c 0
 231 347 244 362 255 375 c 1
 255 10 l 1
 238 10 l 1
 238 0 l 1
 350 0 l 1
 350 10 l 1
 320 10 l 1
 320 790 l 1
 350 790 l 1
235 519 m 0
 243 532 250 545 255 559 c 1
 255 390 l 1
 246 379 235 365 223 352 c 1
 219 352 l 2
 212 352 210 360 210 368 c 2
 210 433 l 2
 210 466 218 490 235 519 c 0
EndSplineSet
EndChar

StartChar: afii10065
Encoding: 1072 1072 139
Width: 245
Flags: W
LayerCount: 2
Fore
SplineSet
240 0 m 1
 240 10 l 1
 210 10 l 1
 210 790 l 1
 240 790 l 1
 240 800 l 1
 130 800 l 1
 130 790 l 1
 145 790 l 1
 145 759 l 2
 144 761 143 763 143 765 c 0
 135 785 122 803 101 803 c 0
 71 803 43 767 43 730 c 0
 43 707 45 693 52 673 c 0
 58 657 69 628 74 616 c 0
 82 598 84 591 84 571 c 0
 84 552 80 531 74 523 c 0
 72 520 55 496 55 496 c 2
 51 490 59 484 63 490 c 2
 63 490 80 514 82 517 c 0
 88 527 101 546 110 566 c 0
 121 591 126 610 126 639 c 0
 126 662 122 674 114 696 c 0
 107 716 102 721 93 741 c 0
 88 751 84 761 84 773 c 0
 84 783 91 793 104 793 c 0
 116 793 127 777 133 761 c 0
 138 746 142 732 145 719 c 2
 145 595 l 1
 139 572 130 547 117 525 c 0
 100 496 89 484 71 459 c 0
 52 433 45 418 46 383 c 0
 47 363 59 342 91 342 c 2
 104 342 l 1
 71 306 35 265 35 212 c 2
 35 10 l 1
 5 10 l 1
 5 0 l 1
 117 0 l 1
 117 10 l 1
 100 10 l 1
 100 268 l 2
 100 293 98 319 114 338 c 0
 121 347 134 362 145 375 c 1
 145 10 l 1
 128 10 l 1
 128 0 l 1
 240 0 l 1
125 519 m 0
 133 532 140 545 145 559 c 1
 145 390 l 1
 136 379 125 365 113 352 c 1
 109 352 l 2
 102 352 100 360 100 368 c 2
 100 433 l 2
 100 466 108 490 125 519 c 0
EndSplineSet
EndChar

StartChar: afii10066
Encoding: 1073 1073 140
Width: 245
Flags: W
LayerCount: 2
Fore
SplineSet
5 0 m 1
 240 0 l 1
 240 10 l 1
 210 10 l 1
 210 394 l 1
 184 399 158 410 136 433 c 0
 112 457 102 479 100 510 c 2
 100 790 l 1
 127 790 l 1
 127 769 132 719 141 683 c 0
 153 631 162 610 181 561 c 0
 185 550 192 537 194 532 c 0
 195 529 202 532 201 535 c 0
 198 543 194 552 192 563 c 0
 182 611 181 637 181 685 c 0
 181 721 189 768 193 790 c 0
 194 794 194 797 193 800 c 2
 5 800 l 1
 5 790 l 1
 35 790 l 1
 35 10 l 1
 5 10 l 1
 5 0 l 1
128 425 m 0
 133 419 139 415 145 410 c 1
 145 10 l 1
 100 10 l 1
 100 464 l 1
 106 450 115 438 128 425 c 0
EndSplineSet
EndChar

StartChar: afii10067
Encoding: 1074 1074 141
Width: 245
Flags: W
LayerCount: 2
Fore
SplineSet
5 0 m 1
 240 0 l 1
 240 10 l 1
 210 10 l 1
 210 385 l 1
 187 389 160 399 145 412 c 0
 127 427 114 443 105 459 c 1
 108 466 112 473 114 481 c 1
 114 480 115 480 115 479 c 0
 121 452 144 442 164 442 c 0
 185 442 210 472 210 510 c 2
 210 727 l 2
 210 774 169 812 122 812 c 0
 74 812 35 774 35 727 c 2
 35 10 l 1
 5 10 l 1
 5 0 l 1
139 403 m 0
 141 401 142 399 145 398 c 2
 145 10 l 1
 100 10 l 1
 100 447 l 1
 109 432 122 417 139 403 c 0
123 512 m 0
 124 519 114 521 113 514 c 0
 110 500 105 485 100 471 c 1
 100 787 l 2
 100 798 111 803 122 803 c 0
 134 803 145 798 145 787 c 2
 145 487 l 2
 145 477 143 465 138 462 c 1
 131 464 124 479 123 492 c 0
 122 499 123 508 123 512 c 0
EndSplineSet
EndChar

StartChar: afii10068
Encoding: 1075 1075 142
Width: 196
Flags: W
LayerCount: 2
Fore
SplineSet
179 530 m 0
 175 540 172 548 170 560 c 0
 164 590 163 623 163 658 c 0
 163 712 169 754 179 790 c 0
 180 794 179 797 178 800 c 2
 5 800 l 1
 5 790 l 1
 35 790 l 1
 35 10 l 1
 5 10 l 1
 5 0 l 1
 130 0 l 1
 130 10 l 1
 100 10 l 1
 100 790 l 1
 114 790 l 1
 114 769 118 724 125 685 c 0
 134 635 145 598 159 557 c 0
 162 547 168 534 172 527 c 0
 174 523 180 527 179 530 c 0
EndSplineSet
EndChar

StartChar: afii10069
Encoding: 1076 1076 143
Width: 240
Flags: W
LayerCount: 2
Fore
SplineSet
239 -255 m 0
 236 -247 232 -238 230 -227 c 0
 220 -179 219 -153 219 -105 c 0
 219 -69 227 -22 231 0 c 0
 232 4 232 7 231 10 c 2
 201 10 l 1
 201 790 l 1
 231 790 l 1
 231 800 l 1
 121 800 l 1
 121 790 l 1
 136 790 l 1
 136 759 l 2
 135 761 134 763 134 765 c 0
 126 785 112 803 93 803 c 0
 63 803 36 767 36 730 c 0
 36 707 37 693 44 673 c 0
 50 657 64 628 69 616 c 0
 77 598 82 586 82 566 c 0
 82 547 78 526 72 518 c 0
 70 515 53 491 53 491 c 2
 49 485 57 479 61 485 c 2
 61 485 78 509 80 512 c 0
 86 522 99 541 108 561 c 0
 119 586 121 610 121 639 c 0
 121 662 114 674 106 696 c 0
 99 716 95 721 86 741 c 0
 81 751 77 761 77 773 c 0
 77 783 83 793 96 793 c 0
 108 793 118 777 124 761 c 0
 129 746 133 732 136 718 c 2
 136 582 l 1
 132 557 126 531 119 504 c 0
 111 475 104 462 96 433 c 0
 87 402 85 365 82 322 c 0
 80 289 78 187 78 139 c 0
 78 98 73 29 62 10 c 1
 9 10 l 2
 8 7 8 4 9 0 c 0
 13 -22 21 -69 21 -105 c 0
 21 -153 20 -179 10 -227 c 0
 8 -238 4 -247 1 -255 c 0
 0 -258 7 -261 8 -258 c 0
 10 -253 17 -240 21 -229 c 0
 40 -180 49 -159 61 -107 c 0
 69 -70 74 -21 75 0 c 1
 165 0 l 1
 165 -21 170 -70 179 -107 c 0
 191 -159 200 -180 219 -229 c 0
 223 -240 230 -253 232 -258 c 0
 233 -261 240 -258 239 -255 c 0
129 502 m 0
 131 511 134 520 136 529 c 2
 136 10 l 1
 73 10 l 1
 82 36 88 100 88 139 c 0
 88 187 90 289 92 322 c 0
 95 363 97 400 106 431 c 0
 114 460 121 473 129 502 c 0
EndSplineSet
EndChar

StartChar: afii10070
Encoding: 1077 1077 144
Width: 245
Flags: W
LayerCount: 2
Fore
SplineSet
107 491 m 2
 100 480 l 1
 100 787 l 2
 100 798 111 803 122 803 c 0
 134 803 145 798 145 787 c 2
 145 595 l 1
 115 595 l 1
 115 585 l 1
 240 585 l 1
 240 595 l 1
 210 595 l 1
 210 727 l 2
 210 774 169 812 122 812 c 0
 74 812 35 774 35 727 c 2
 35 287 l 2
 35 250 44 228 57 205 c 0
 71 178 104 149 127 109 c 0
 137 91 140 73 142 55 c 0
 141 46 136 24 122 8 c 0
 114 2 105 -2 96 -2 c 0
 90 -2 84 0 78 3 c 0
 74 9 73 12 73 18 c 0
 73 34 80 47 88 61 c 0
 99 79 103 91 103 106 c 0
 103 121 97 138 78 138 c 0
 44 138 30 102 30 76 c 0
 30 39 59 -12 96 -12 c 0
 142 -12 172 60 188 114 c 0
 211 196 213 294 214 345 c 1
 240 345 l 1
 240 355 l 1
 115 355 l 1
 115 345 l 1
 145 345 l 1
 145 93 l 2
 143 100 140 107 136 115 c 0
 129 128 125 140 118 156 c 0
 106 184 100 218 100 260 c 2
 100 460 l 1
 110 476 l 2
 115 484 124 494 131 494 c 0
 142 494 145 485 145 474 c 2
 145 435 l 1
 212 435 l 1
 212 458 l 2
 212 505 181 519 160 519 c 0
 141 519 122 512 107 491 c 2
EndSplineSet
EndChar

StartChar: afii10072
Encoding: 1078 1078 145
Width: 355
Flags: W
LayerCount: 2
Fore
SplineSet
350 0 m 1
 350 10 l 1
 320 10 l 1
 320 339 l 2
 320 387 298 416 253 419 c 1
 261 427 265 440 265 454 c 2
 265 701 l 2
 265 720 270 741 293 741 c 2
 326 741 l 1
 326 806 l 1
 306 806 l 2
 262 806 255 770 255 741 c 2
 255 454 l 2
 255 436 247 419 228 419 c 2
 210 419 l 1
 210 790 l 1
 240 790 l 1
 240 800 l 1
 115 800 l 1
 115 790 l 1
 145 790 l 1
 145 419 l 1
 124 419 l 2
 107 420 100 437 100 454 c 2
 100 741 l 2
 100 770 93 806 49 806 c 2
 29 806 l 1
 29 741 l 1
 62 741 l 2
 85 741 90 720 90 701 c 2
 90 454 l 2
 90 440 94 427 102 419 c 1
 56 416 35 387 35 339 c 2
 35 10 l 1
 5 10 l 1
 5 0 l 1
 117 0 l 1
 117 10 l 1
 100 10 l 1
 100 393 l 2
 100 405 109 409 119 409 c 2
 123 409 l 1
 127 409 l 1
 145 409 l 1
 145 10 l 1
 128 10 l 1
 128 0 l 1
 227 0 l 1
 227 10 l 1
 210 10 l 1
 210 409 l 1
 228 409 l 1
 231 409 l 1
 236 409 l 2
 246 409 255 405 255 393 c 2
 255 10 l 1
 238 10 l 1
 238 0 l 1
 350 0 l 1
EndSplineSet
EndChar

StartChar: afii10073
Encoding: 1079 1079 146
Width: 245
Flags: W
LayerCount: 2
Fore
SplineSet
210 727 m 2
 210 774 171 812 123 812 c 0
 76 812 35 774 35 727 c 2
 35 595 l 1
 5 595 l 1
 5 585 l 1
 130 585 l 1
 130 595 l 1
 100 595 l 1
 100 787 l 2
 100 798 111 803 123 803 c 0
 134 803 145 798 145 787 c 2
 145 530 l 2
 145 520 136 515 126 514 c 2
 123 514 l 2
 76 514 33 486 33 439 c 2
 33 422 l 1
 100 422 l 1
 100 489 l 2
 100 500 111 505 123 505 c 2
 126 505 l 2
 136 504 145 499 145 489 c 2
 145 260 l 2
 145 218 139 184 127 156 c 0
 120 140 116 128 109 115 c 0
 105 107 102 100 100 93 c 2
 100 345 l 1
 130 345 l 1
 130 355 l 1
 5 355 l 1
 5 345 l 1
 31 345 l 1
 32 294 33 196 57 114 c 0
 73 60 103 -12 149 -12 c 0
 186 -12 215 39 215 76 c 0
 215 102 201 138 167 138 c 0
 148 138 142 121 142 106 c 0
 142 91 146 79 157 61 c 0
 165 47 172 34 172 18 c 0
 172 12 171 9 167 3 c 0
 161 0 155 -2 149 -2 c 0
 140 -2 131 2 123 8 c 0
 109 24 104 46 103 55 c 0
 105 73 108 91 118 109 c 0
 141 149 174 178 188 205 c 0
 201 228 210 250 210 287 c 2
 210 439 l 2
 210 475 187 500 155 509 c 1
 187 519 210 544 210 580 c 2
 210 727 l 2
EndSplineSet
EndChar

StartChar: afii10074
Encoding: 1080 1080 147
Width: 245
Flags: W
LayerCount: 2
Fore
SplineSet
240 0 m 1
 240 10 l 1
 210 10 l 1
 210 790 l 1
 240 790 l 1
 240 800 l 1
 128 800 l 1
 128 790 l 1
 145 790 l 1
 145 605 l 1
 100 230 l 1
 100 790 l 1
 117 790 l 1
 117 800 l 1
 5 800 l 1
 5 790 l 1
 35 790 l 1
 35 10 l 1
 5 10 l 1
 5 0 l 1
 117 0 l 1
 117 10 l 1
 100 10 l 1
 100 145 l 1
 145 520 l 1
 145 10 l 1
 128 10 l 1
 128 0 l 1
 240 0 l 1
EndSplineSet
EndChar

StartChar: afii10075
Encoding: 1081 1081 148
Width: 245
Flags: W
LayerCount: 2
Fore
SplineSet
240 0 m 1
 240 10 l 1
 210 10 l 1
 210 790 l 1
 240 790 l 1
 240 800 l 1
 128 800 l 1
 128 790 l 1
 145 790 l 1
 145 605 l 1
 100 230 l 1
 100 790 l 1
 117 790 l 1
 117 800 l 1
 5 800 l 1
 5 790 l 1
 35 790 l 1
 35 10 l 1
 5 10 l 1
 5 0 l 1
 117 0 l 1
 117 10 l 1
 100 10 l 1
 100 145 l 1
 145 520 l 1
 145 10 l 1
 128 10 l 1
 128 0 l 1
 240 0 l 1
121 807 m 0
 154 807 181 838 181 864 c 2
 181 872 l 1
 138 872 l 1
 138 826 l 2
 138 817 129 815 121 815 c 0
 113 815 104 817 104 826 c 2
 104 872 l 1
 61 872 l 1
 61 864 l 2
 61 838 88 807 121 807 c 0
EndSplineSet
EndChar

StartChar: afii10076
Encoding: 1082 1082 149
Width: 245
Flags: W
LayerCount: 2
Fore
SplineSet
240 0 m 1
 240 10 l 1
 210 10 l 1
 210 339 l 2
 210 387 188 416 143 419 c 1
 151 427 155 440 155 454 c 2
 155 701 l 2
 155 720 160 741 183 741 c 2
 216 741 l 1
 216 806 l 1
 196 806 l 2
 152 806 145 770 145 741 c 2
 145 454 l 2
 145 437 138 420 121 419 c 2
 100 419 l 1
 100 790 l 1
 130 790 l 1
 130 800 l 1
 5 800 l 1
 5 790 l 1
 35 790 l 1
 35 10 l 1
 5 10 l 1
 5 0 l 1
 117 0 l 1
 117 10 l 1
 100 10 l 1
 100 409 l 1
 118 409 l 1
 121 409 l 1
 126 409 l 2
 136 409 145 405 145 393 c 2
 145 10 l 1
 128 10 l 1
 128 0 l 1
 240 0 l 1
EndSplineSet
EndChar

StartChar: afii10077
Encoding: 1083 1083 150
Width: 245
Flags: W
LayerCount: 2
Fore
SplineSet
240 0 m 1
 240 10 l 1
 210 10 l 1
 210 790 l 1
 240 790 l 1
 240 800 l 1
 130 800 l 1
 130 790 l 1
 145 790 l 1
 145 759 l 2
 144 761 143 763 143 765 c 0
 135 785 121 803 102 803 c 0
 72 803 45 767 45 730 c 0
 45 707 48 693 55 673 c 0
 61 657 73 628 78 616 c 0
 86 598 88 586 88 566 c 0
 88 547 84 526 78 518 c 0
 76 515 59 491 59 491 c 2
 55 485 63 479 67 485 c 2
 67 485 84 509 86 512 c 0
 92 522 105 541 114 561 c 0
 125 586 130 610 130 639 c 0
 130 662 125 674 117 696 c 0
 110 716 104 721 95 741 c 0
 90 751 86 761 86 773 c 0
 86 783 92 793 105 793 c 0
 117 793 127 777 133 761 c 0
 138 746 142 732 145 719 c 2
 145 578 l 1
 141 554 134 528 122 503 c 0
 117 492 112 483 107 474 c 0
 93 450 76 422 66 407 c 0
 62 401 35 369 35 322 c 2
 35 10 l 1
 5 10 l 1
 5 0 l 1
 117 0 l 1
 117 10 l 1
 100 10 l 1
 100 378 l 2
 100 399 105 447 115 466 c 0
 121 478 126 487 131 498 c 0
 136 509 141 520 145 532 c 1
 145 10 l 1
 128 10 l 1
 128 0 l 1
 240 0 l 1
EndSplineSet
EndChar

StartChar: afii10078
Encoding: 1084 1084 151
Width: 355
Flags: W
LayerCount: 2
Fore
SplineSet
350 0 m 1
 350 10 l 1
 320 10 l 1
 320 790 l 1
 350 790 l 1
 350 800 l 1
 238 800 l 1
 238 790 l 1
 255 790 l 1
 255 605 l 1
 210 230 l 1
 210 790 l 1
 227 790 l 1
 227 800 l 1
 128 800 l 1
 128 790 l 1
 145 790 l 1
 145 759 l 2
 144 761 143 763 143 765 c 0
 135 785 121 803 102 803 c 0
 72 803 45 767 45 730 c 0
 45 707 48 693 55 673 c 0
 61 657 73 628 78 616 c 0
 86 598 88 586 88 566 c 0
 88 547 84 526 78 518 c 0
 76 515 59 491 59 491 c 2
 55 485 63 479 67 485 c 2
 67 485 84 509 86 512 c 0
 92 522 105 541 114 561 c 0
 125 586 130 610 130 639 c 0
 130 662 125 674 117 696 c 0
 110 716 104 721 95 741 c 0
 90 751 86 761 86 773 c 0
 86 783 92 793 105 793 c 0
 117 793 127 777 133 761 c 0
 138 746 142 732 145 719 c 2
 145 578 l 1
 141 554 134 528 122 503 c 0
 117 492 112 483 107 474 c 0
 93 450 76 422 66 407 c 0
 62 401 35 369 35 322 c 2
 35 10 l 1
 5 10 l 1
 5 0 l 1
 117 0 l 1
 117 10 l 1
 100 10 l 1
 100 378 l 2
 100 399 105 447 115 466 c 0
 121 478 126 487 131 498 c 0
 136 509 141 520 145 532 c 1
 145 10 l 1
 128 10 l 1
 128 0 l 1
 227 0 l 1
 227 10 l 1
 210 10 l 1
 210 145 l 1
 255 520 l 1
 255 10 l 1
 238 10 l 1
 238 0 l 1
 350 0 l 1
EndSplineSet
EndChar

StartChar: afii10079
Encoding: 1085 1085 152
Width: 245
Flags: W
LayerCount: 2
Fore
SplineSet
240 0 m 1
 240 10 l 1
 210 10 l 1
 210 790 l 1
 240 790 l 1
 240 800 l 1
 128 800 l 1
 128 790 l 1
 145 790 l 1
 145 405 l 1
 100 405 l 1
 100 790 l 1
 117 790 l 1
 117 800 l 1
 5 800 l 1
 5 790 l 1
 35 790 l 1
 35 10 l 1
 5 10 l 1
 5 0 l 1
 117 0 l 1
 117 10 l 1
 100 10 l 1
 100 395 l 1
 145 395 l 1
 145 10 l 1
 128 10 l 1
 128 0 l 1
 240 0 l 1
EndSplineSet
EndChar

StartChar: afii10080
Encoding: 1086 1086 153
Width: 245
Flags: W
LayerCount: 2
Fore
SplineSet
210 727 m 2
 210 774 169 812 122 812 c 0
 74 812 35 774 35 727 c 2
 35 73 l 2
 35 26 74 -12 122 -12 c 0
 169 -12 210 26 210 73 c 2
 210 727 l 2
100 787 m 2
 100 798 111 803 122 803 c 0
 134 803 145 798 145 787 c 2
 145 13 l 2
 145 2 134 -3 122 -3 c 0
 111 -3 100 2 100 13 c 2
 100 787 l 2
EndSplineSet
EndChar

StartChar: afii10081
Encoding: 1087 1087 154
Width: 245
Flags: W
LayerCount: 2
Fore
SplineSet
117 0 m 1
 117 10 l 1
 100 10 l 1
 100 790 l 1
 145 790 l 1
 145 10 l 1
 128 10 l 1
 128 0 l 1
 240 0 l 1
 240 10 l 1
 210 10 l 1
 210 790 l 1
 240 790 l 1
 240 800 l 1
 5 800 l 1
 5 790 l 1
 35 790 l 1
 35 10 l 1
 5 10 l 1
 5 0 l 1
 117 0 l 1
EndSplineSet
EndChar

StartChar: afii10082
Encoding: 1088 1088 155
Width: 245
Flags: W
LayerCount: 2
Fore
SplineSet
130 0 m 1
 130 10 l 1
 100 10 l 1
 100 317 l 2
 103 341 109 364 119 394 c 0
 121 400 122 406 124 412 c 1
 132 395 148 388 163 388 c 0
 191 388 210 435 210 472 c 2
 210 727 l 2
 210 774 169 812 122 812 c 0
 74 812 35 774 35 727 c 2
 35 10 l 1
 5 10 l 1
 5 0 l 1
 130 0 l 1
129 468 m 1
 129 469 l 1
 129 476 l 2
 129 485 119 484 119 476 c 2
 119 469 l 1
 119 468 l 1
 119 455 l 2
 118 439 116 418 109 398 c 0
 105 388 102 379 100 370 c 2
 100 787 l 2
 100 798 111 803 122 803 c 0
 134 803 145 798 145 787 c 2
 145 435 l 2
 145 425 145 413 140 409 c 1
 134 411 129 425 129 432 c 2
 129 468 l 1
EndSplineSet
EndChar

StartChar: afii10083
Encoding: 1089 1089 156
Width: 245
Flags: W
LayerCount: 2
Fore
SplineSet
240 345 m 1
 240 355 l 1
 115 355 l 1
 115 345 l 1
 145 345 l 1
 145 93 l 2
 143 100 140 107 136 115 c 0
 129 128 125 140 118 156 c 0
 106 184 100 218 100 260 c 2
 100 787 l 2
 100 798 111 803 122 803 c 0
 134 803 145 798 145 787 c 2
 145 595 l 1
 115 595 l 1
 115 585 l 1
 240 585 l 1
 240 595 l 1
 210 595 l 1
 210 727 l 2
 210 774 169 812 122 812 c 0
 74 812 35 774 35 727 c 2
 35 287 l 2
 35 250 44 228 57 205 c 0
 71 178 104 149 127 109 c 0
 137 91 140 73 142 55 c 0
 141 46 136 24 122 8 c 0
 114 2 105 -2 96 -2 c 0
 90 -2 84 0 78 3 c 0
 74 9 73 12 73 18 c 0
 73 34 80 47 88 61 c 0
 99 79 103 91 103 106 c 0
 103 121 97 138 78 138 c 0
 44 138 30 102 30 76 c 0
 30 39 59 -12 96 -12 c 0
 142 -12 172 60 188 114 c 0
 211 196 213 294 214 345 c 1
 240 345 l 1
EndSplineSet
EndChar

StartChar: afii10084
Encoding: 1090 1090 157
Width: 247
Flags: W
LayerCount: 2
Fore
SplineSet
230 530 m 0
 226 540 223 548 221 560 c 0
 215 590 214 623 214 658 c 0
 214 712 220 754 230 790 c 0
 231 794 230 797 229 800 c 2
 18 800 l 2
 17 797 16 794 17 790 c 0
 27 754 33 712 33 658 c 0
 33 623 32 590 26 560 c 0
 24 548 21 540 17 530 c 0
 16 527 22 523 24 527 c 0
 28 534 34 547 37 557 c 0
 51 598 62 635 71 685 c 0
 77 724 81 769 82 790 c 1
 91 790 l 1
 91 10 l 1
 61 10 l 1
 61 0 l 1
 186 0 l 1
 186 10 l 1
 156 10 l 1
 156 790 l 1
 165 790 l 1
 165 769 169 724 176 685 c 0
 185 635 196 598 210 557 c 0
 213 547 219 534 223 527 c 0
 225 523 231 527 230 530 c 0
EndSplineSet
EndChar

StartChar: uniA64B
Encoding: 42571 42571 158
Width: 236
Flags: W
LayerCount: 2
Fore
SplineSet
44 158 m 2
 44 118 l 2
 44 54 72 -12 123 -12 c 0
 174 -12 203 54 203 118 c 2
 203 158 l 2
 203 217 178 278 134 287 c 1
 152 644 l 2
 156 721 175 741 194 741 c 2
 224 741 l 1
 224 806 l 1
 198 806 l 2
 161 806 147 763 145 715 c 2
 127 342 l 1
 126 342 l 1
 97 790 l 1
 130 790 l 1
 130 800 l 1
 5 800 l 1
 5 790 l 1
 32 790 l 1
 61 332 l 1
 126 332 l 1
 124 288 l 1
 123 288 l 2
 72 288 44 222 44 158 c 2
149 252 m 2
 149 24 l 2
 149 4 133 -3 123 -3 c 0
 113 -3 98 4 98 24 c 2
 98 252 l 2
 98 272 113 279 123 279 c 2
 124 279 l 1
 112 30 l 2
 112 23 122 23 122 30 c 2
 134 276 l 1
 141 273 149 265 149 252 c 2
EndSplineSet
EndChar

StartChar: afii10086
Encoding: 1092 1092 159
Width: 355
Flags: W
LayerCount: 2
Fore
SplineSet
320 175 m 2
 320 675 l 2
 320 722 280 760 233 760 c 2
 210 760 l 1
 210 790 l 1
 240 790 l 1
 240 800 l 1
 115 800 l 1
 115 790 l 1
 145 790 l 1
 145 760 l 1
 122 760 l 2
 75 760 35 722 35 675 c 2
 35 175 l 2
 35 128 75 90 122 90 c 2
 145 90 l 1
 145 10 l 1
 115 10 l 1
 115 0 l 1
 240 0 l 1
 240 10 l 1
 210 10 l 1
 210 90 l 1
 233 90 l 2
 280 90 320 128 320 175 c 2
233 100 m 2
 210 100 l 1
 210 750 l 1
 233 750 l 2
 244 750 255 746 255 735 c 2
 255 115 l 2
 255 104 244 100 233 100 c 2
100 735 m 2
 100 746 111 750 122 750 c 2
 145 750 l 1
 145 100 l 1
 122 100 l 2
 111 100 100 104 100 115 c 2
 100 735 l 2
EndSplineSet
EndChar

StartChar: afii10087
Encoding: 1093 1093 160
Width: 245
Flags: W
LayerCount: 2
Fore
SplineSet
100 0 m 1
 100 10 l 1
 58 10 l 1
 101 320 l 1
 144 10 l 1
 111 10 l 1
 111 0 l 1
 240 0 l 1
 240 10 l 1
 209 10 l 1
 133 554 l 1
 146 647 l 2
 156 716 172 741 194 741 c 2
 224 741 l 1
 224 806 l 1
 198 806 l 2
 161 806 152 768 145 715 c 2
 128 591 l 1
 100 790 l 1
 130 790 l 1
 130 800 l 1
 5 800 l 1
 5 790 l 1
 35 790 l 1
 96 356 l 1
 48 10 l 1
 5 10 l 1
 5 0 l 1
 100 0 l 1
EndSplineSet
EndChar

StartChar: afii10088
Encoding: 1094 1094 161
Width: 255
Flags: W
LayerCount: 2
Fore
SplineSet
258 -255 m 0
 255 -247 251 -238 249 -227 c 0
 239 -179 238 -153 238 -105 c 0
 238 -69 246 -22 250 0 c 0
 251 4 251 7 250 10 c 2
 210 10 l 1
 210 790 l 1
 240 790 l 1
 240 800 l 1
 128 800 l 1
 128 790 l 1
 145 790 l 1
 145 10 l 1
 100 10 l 1
 100 790 l 1
 117 790 l 1
 117 800 l 1
 5 800 l 1
 5 790 l 1
 35 790 l 1
 35 10 l 1
 5 10 l 1
 5 0 l 1
 184 0 l 1
 184 -21 189 -70 198 -107 c 0
 210 -159 219 -180 238 -229 c 0
 242 -240 249 -253 251 -258 c 0
 252 -261 259 -258 258 -255 c 0
EndSplineSet
EndChar

StartChar: afii10089
Encoding: 1095 1095 162
Width: 245
Flags: W
LayerCount: 2
Fore
SplineSet
240 0 m 1
 240 10 l 1
 210 10 l 1
 210 790 l 1
 240 790 l 1
 240 800 l 1
 128 800 l 1
 128 790 l 1
 145 790 l 1
 145 375 l 1
 119 375 l 2
 109 375 100 379 100 391 c 2
 100 790 l 1
 117 790 l 1
 117 800 l 1
 5 800 l 1
 5 790 l 1
 35 790 l 1
 35 445 l 2
 35 394 59 365 109 365 c 2
 145 365 l 1
 145 10 l 1
 115 10 l 1
 115 0 l 1
 240 0 l 1
EndSplineSet
EndChar

StartChar: afii10090
Encoding: 1096 1096 163
Width: 355
Flags: W
LayerCount: 2
Fore
SplineSet
350 790 m 1
 350 800 l 1
 238 800 l 1
 238 790 l 1
 255 790 l 1
 255 10 l 1
 210 10 l 1
 210 790 l 1
 227 790 l 1
 227 800 l 1
 128 800 l 1
 128 790 l 1
 145 790 l 1
 145 10 l 1
 100 10 l 1
 100 790 l 1
 117 790 l 1
 117 800 l 1
 5 800 l 1
 5 790 l 1
 35 790 l 1
 35 10 l 1
 5 10 l 1
 5 0 l 1
 350 0 l 1
 350 10 l 1
 320 10 l 1
 320 790 l 1
 350 790 l 1
EndSplineSet
EndChar

StartChar: afii10091
Encoding: 1097 1097 164
Width: 365
Flags: W
LayerCount: 2
Fore
SplineSet
350 790 m 1
 350 800 l 1
 238 800 l 1
 238 790 l 1
 255 790 l 1
 255 10 l 1
 210 10 l 1
 210 790 l 1
 227 790 l 1
 227 800 l 1
 128 800 l 1
 128 790 l 1
 145 790 l 1
 145 10 l 1
 100 10 l 1
 100 790 l 1
 117 790 l 1
 117 800 l 1
 5 800 l 1
 5 790 l 1
 35 790 l 1
 35 10 l 1
 5 10 l 1
 5 0 l 1
 294 0 l 1
 294 -21 299 -70 308 -107 c 0
 320 -159 329 -180 348 -229 c 0
 352 -240 359 -253 361 -258 c 0
 362 -261 369 -258 368 -255 c 0
 365 -247 361 -238 359 -227 c 0
 349 -179 348 -153 348 -105 c 0
 348 -69 356 -22 360 0 c 0
 361 4 361 7 360 10 c 2
 320 10 l 1
 320 790 l 1
 350 790 l 1
EndSplineSet
EndChar

StartChar: afii10092
Encoding: 1098 1098 165
Width: 305
Flags: W
LayerCount: 2
Fore
SplineSet
300 0 m 1
 300 10 l 1
 270 10 l 1
 270 394 l 1
 244 399 218 410 196 433 c 0
 172 456 162 477 160 507 c 2
 160 790 l 1
 190 790 l 1
 190 800 l 1
 19 800 l 2
 18 797 18 794 19 790 c 0
 23 768 31 721 31 685 c 0
 31 637 30 611 20 563 c 0
 18 552 14 543 11 535 c 0
 10 532 17 529 18 532 c 0
 20 537 27 550 31 561 c 0
 50 610 59 631 71 683 c 0
 79 719 84 769 85 790 c 1
 95 790 l 1
 95 10 l 1
 65 10 l 1
 65 0 l 1
 300 0 l 1
188 425 m 0
 193 419 199 415 205 410 c 1
 205 10 l 1
 160 10 l 1
 160 464 l 1
 166 450 175 438 188 425 c 0
EndSplineSet
EndChar

StartChar: afii10093
Encoding: 1099 1099 166
Width: 355
Flags: W
LayerCount: 2
Fore
SplineSet
5 0 m 1
 227 0 l 1
 227 10 l 1
 210 10 l 1
 210 394 l 1
 184 399 158 410 136 433 c 0
 112 457 102 479 100 510 c 2
 100 790 l 1
 130 790 l 1
 130 800 l 1
 5 800 l 1
 5 790 l 1
 35 790 l 1
 35 10 l 1
 5 10 l 1
 5 0 l 1
350 0 m 1
 350 10 l 1
 320 10 l 1
 320 790 l 1
 350 790 l 1
 350 800 l 1
 238 800 l 1
 238 790 l 1
 255 790 l 1
 255 10 l 1
 238 10 l 1
 238 0 l 1
 350 0 l 1
128 425 m 0
 133 419 139 415 145 410 c 1
 145 10 l 1
 100 10 l 1
 100 464 l 1
 106 450 115 438 128 425 c 0
EndSplineSet
EndChar

StartChar: afii10094
Encoding: 1100 1100 167
Width: 245
Flags: W
LayerCount: 2
Fore
SplineSet
5 0 m 1
 240 0 l 1
 240 10 l 1
 210 10 l 1
 210 394 l 1
 184 399 158 410 136 433 c 0
 112 457 102 479 100 510 c 2
 100 790 l 1
 130 790 l 1
 130 800 l 1
 5 800 l 1
 5 790 l 1
 35 790 l 1
 35 10 l 1
 5 10 l 1
 5 0 l 1
128 425 m 0
 133 419 139 415 145 410 c 1
 145 10 l 1
 100 10 l 1
 100 464 l 1
 106 450 115 438 128 425 c 0
EndSplineSet
EndChar

StartChar: uni0463
Encoding: 1123 1123 168
Width: 301
Flags: W
LayerCount: 2
Fore
SplineSet
230 470 m 0
 226 480 223 488 221 500 c 0
 215 530 214 563 214 598 c 0
 214 652 220 694 230 730 c 0
 231 734 230 737 229 740 c 2
 156 740 l 1
 156 790 l 1
 186 790 l 1
 186 800 l 1
 61 800 l 1
 61 790 l 1
 91 790 l 1
 91 740 l 1
 18 740 l 2
 17 737 16 734 17 730 c 0
 27 694 33 652 33 598 c 0
 33 563 32 530 26 500 c 0
 24 488 21 480 17 470 c 0
 16 467 22 463 24 467 c 0
 28 474 34 487 37 497 c 0
 51 538 62 575 71 625 c 0
 77 664 81 709 82 730 c 1
 91 730 l 1
 91 10 l 1
 61 10 l 1
 61 0 l 1
 296 0 l 1
 296 10 l 1
 266 10 l 1
 266 394 l 1
 240 399 214 410 192 433 c 0
 168 457 158 479 156 510 c 2
 156 511 l 1
 156 730 l 1
 165 730 l 1
 165 709 169 664 176 625 c 0
 185 575 196 538 210 497 c 0
 213 487 219 474 223 467 c 0
 225 463 231 467 230 470 c 0
184 425 m 0
 189 419 195 415 201 410 c 1
 201 10 l 1
 156 10 l 1
 156 464 l 1
 162 450 171 438 184 425 c 0
EndSplineSet
EndChar

StartChar: afii10096
Encoding: 1102 1102 169
Width: 355
Flags: W
LayerCount: 2
Fore
SplineSet
320 727 m 2
 320 774 279 812 232 812 c 0
 184 812 145 774 145 727 c 2
 145 405 l 1
 100 405 l 1
 100 790 l 1
 130 790 l 1
 130 800 l 1
 5 800 l 1
 5 790 l 1
 35 790 l 1
 35 10 l 1
 5 10 l 1
 5 0 l 1
 130 0 l 1
 130 10 l 1
 100 10 l 1
 100 395 l 1
 145 395 l 1
 145 73 l 2
 145 26 184 -12 232 -12 c 0
 279 -12 320 26 320 73 c 2
 320 727 l 2
210 787 m 2
 210 798 221 803 232 803 c 0
 244 803 255 798 255 787 c 2
 255 13 l 2
 255 2 244 -3 232 -3 c 0
 221 -3 210 2 210 13 c 2
 210 787 l 2
EndSplineSet
EndChar

StartChar: uniA657
Encoding: 42583 42583 170
Width: 355
Flags: W
LayerCount: 2
Fore
SplineSet
350 790 m 1
 350 800 l 1
 240 800 l 1
 240 790 l 1
 255 790 l 1
 255 759 l 2
 254 761 253 763 253 765 c 0
 245 785 232 803 211 803 c 0
 181 803 153 767 153 730 c 0
 153 708 155 694 161 675 c 1
 100 675 l 1
 100 790 l 1
 117 790 l 1
 117 800 l 1
 5 800 l 1
 5 790 l 1
 35 790 l 1
 35 10 l 1
 5 10 l 1
 5 0 l 1
 117 0 l 1
 117 10 l 1
 100 10 l 1
 100 665 l 1
 165 665 l 1
 171 648 179 626 184 616 c 0
 192 598 194 591 194 571 c 0
 194 552 190 531 184 523 c 0
 182 520 165 496 165 496 c 2
 161 490 169 484 173 490 c 2
 173 490 190 514 192 517 c 0
 198 527 211 546 220 566 c 0
 231 591 236 610 236 639 c 0
 236 662 232 674 224 696 c 0
 217 716 212 721 203 741 c 0
 198 751 194 761 194 773 c 0
 194 783 201 793 214 793 c 0
 226 793 237 777 243 761 c 0
 248 746 252 732 255 719 c 2
 255 595 l 1
 249 572 240 547 227 525 c 0
 210 496 199 484 181 459 c 0
 162 433 155 418 156 383 c 0
 157 363 169 342 201 342 c 2
 214 342 l 1
 181 306 145 265 145 212 c 2
 145 10 l 1
 128 10 l 1
 128 0 l 1
 227 0 l 1
 227 10 l 1
 210 10 l 1
 210 268 l 2
 210 293 208 319 224 338 c 0
 231 347 244 362 255 375 c 1
 255 10 l 1
 238 10 l 1
 238 0 l 1
 350 0 l 1
 350 10 l 1
 320 10 l 1
 320 790 l 1
 350 790 l 1
235 519 m 0
 243 532 250 545 255 559 c 1
 255 390 l 1
 246 379 235 365 223 352 c 1
 219 352 l 2
 212 352 210 360 210 368 c 2
 210 433 l 2
 210 466 218 490 235 519 c 0
EndSplineSet
EndChar

StartChar: uni2027
Encoding: 8231 8231 171
Width: 159
Flags: W
LayerCount: 2
Fore
SplineSet
37 400 m 0
 37 425 57 445 81 445 c 0
 105 445 125 425 125 400 c 0
 125 375 105 355 81 355 c 0
 57 355 37 375 37 400 c 0
EndSplineSet
EndChar

StartChar: sfthyphen
Encoding: 173 173 172
Width: 215
Flags: W
LayerCount: 2
Fore
SplineSet
190 380 m 1
 25 380 l 1
 25 420 l 1
 190 420 l 1
 190 380 l 1
EndSplineSet
EndChar

StartChar: uni0001
Encoding: 1 1 173
Width: 360
Flags: HW
LayerCount: 2
Fore
SplineSet
310 0 m 1
 50 0 l 1
 50 800 l 1
 310 800 l 1
 310 0 l 1
190 401 m 1
 290 40 l 1
 290 762 l 1
 190 401 l 1
169 401 m 1
 70 762 l 1
 70 40 l 1
 169 401 l 1
180 362 m 1
 86 20 l 1
 274 20 l 1
 180 362 l 1
86 780 m 1
 180 440 l 1
 273 780 l 1
 86 780 l 1
EndSplineSet
EndChar

StartChar: uni0002
Encoding: 2 2 174
Width: 360
Flags: HW
LayerCount: 2
Fore
SplineSet
310 0 m 1
 50 0 l 1
 50 800 l 1
 310 800 l 1
 310 0 l 1
190 401 m 1
 290 40 l 1
 290 762 l 1
 190 401 l 1
169 401 m 1
 70 762 l 1
 70 40 l 1
 169 401 l 1
180 362 m 1
 86 20 l 1
 274 20 l 1
 180 362 l 1
86 780 m 1
 180 440 l 1
 273 780 l 1
 86 780 l 1
EndSplineSet
EndChar

StartChar: uni0003
Encoding: 3 3 175
Width: 360
Flags: HW
LayerCount: 2
Fore
SplineSet
310 0 m 1
 50 0 l 1
 50 800 l 1
 310 800 l 1
 310 0 l 1
190 401 m 1
 290 40 l 1
 290 762 l 1
 190 401 l 1
169 401 m 1
 70 762 l 1
 70 40 l 1
 169 401 l 1
180 362 m 1
 86 20 l 1
 274 20 l 1
 180 362 l 1
86 780 m 1
 180 440 l 1
 273 780 l 1
 86 780 l 1
EndSplineSet
EndChar

StartChar: uni0004
Encoding: 4 4 176
Width: 360
Flags: HW
LayerCount: 2
Fore
SplineSet
310 0 m 1
 50 0 l 1
 50 800 l 1
 310 800 l 1
 310 0 l 1
190 401 m 1
 290 40 l 1
 290 762 l 1
 190 401 l 1
169 401 m 1
 70 762 l 1
 70 40 l 1
 169 401 l 1
180 362 m 1
 86 20 l 1
 274 20 l 1
 180 362 l 1
86 780 m 1
 180 440 l 1
 273 780 l 1
 86 780 l 1
EndSplineSet
EndChar

StartChar: uni0005
Encoding: 5 5 177
Width: 360
Flags: HW
LayerCount: 2
Fore
SplineSet
310 0 m 1
 50 0 l 1
 50 800 l 1
 310 800 l 1
 310 0 l 1
190 401 m 1
 290 40 l 1
 290 762 l 1
 190 401 l 1
169 401 m 1
 70 762 l 1
 70 40 l 1
 169 401 l 1
180 362 m 1
 86 20 l 1
 274 20 l 1
 180 362 l 1
86 780 m 1
 180 440 l 1
 273 780 l 1
 86 780 l 1
EndSplineSet
EndChar

StartChar: uni0006
Encoding: 6 6 178
Width: 360
Flags: HW
LayerCount: 2
Fore
SplineSet
310 0 m 1
 50 0 l 1
 50 800 l 1
 310 800 l 1
 310 0 l 1
190 401 m 1
 290 40 l 1
 290 762 l 1
 190 401 l 1
169 401 m 1
 70 762 l 1
 70 40 l 1
 169 401 l 1
180 362 m 1
 86 20 l 1
 274 20 l 1
 180 362 l 1
86 780 m 1
 180 440 l 1
 273 780 l 1
 86 780 l 1
EndSplineSet
EndChar

StartChar: uni0007
Encoding: 7 7 179
Width: 360
Flags: HW
LayerCount: 2
Fore
SplineSet
310 0 m 1
 50 0 l 1
 50 800 l 1
 310 800 l 1
 310 0 l 1
190 401 m 1
 290 40 l 1
 290 762 l 1
 190 401 l 1
169 401 m 1
 70 762 l 1
 70 40 l 1
 169 401 l 1
180 362 m 1
 86 20 l 1
 274 20 l 1
 180 362 l 1
86 780 m 1
 180 440 l 1
 273 780 l 1
 86 780 l 1
EndSplineSet
EndChar

StartChar: uni000B
Encoding: 11 11 183
Width: 360
Flags: HW
LayerCount: 2
Fore
SplineSet
310 0 m 1
 50 0 l 1
 50 800 l 1
 310 800 l 1
 310 0 l 1
190 401 m 1
 290 40 l 1
 290 762 l 1
 190 401 l 1
169 401 m 1
 70 762 l 1
 70 40 l 1
 169 401 l 1
180 362 m 1
 86 20 l 1
 274 20 l 1
 180 362 l 1
86 780 m 1
 180 440 l 1
 273 780 l 1
 86 780 l 1
EndSplineSet
EndChar

StartChar: uni000C
Encoding: 12 12 184
Width: 360
Flags: HW
LayerCount: 2
Fore
SplineSet
310 0 m 1
 50 0 l 1
 50 800 l 1
 310 800 l 1
 310 0 l 1
190 401 m 1
 290 40 l 1
 290 762 l 1
 190 401 l 1
169 401 m 1
 70 762 l 1
 70 40 l 1
 169 401 l 1
180 362 m 1
 86 20 l 1
 274 20 l 1
 180 362 l 1
86 780 m 1
 180 440 l 1
 273 780 l 1
 86 780 l 1
EndSplineSet
EndChar

StartChar: uni000E
Encoding: 14 14 186
Width: 360
Flags: HW
LayerCount: 2
Fore
SplineSet
310 0 m 1
 50 0 l 1
 50 800 l 1
 310 800 l 1
 310 0 l 1
190 401 m 1
 290 40 l 1
 290 762 l 1
 190 401 l 1
169 401 m 1
 70 762 l 1
 70 40 l 1
 169 401 l 1
180 362 m 1
 86 20 l 1
 274 20 l 1
 180 362 l 1
86 780 m 1
 180 440 l 1
 273 780 l 1
 86 780 l 1
EndSplineSet
EndChar

StartChar: uni000F
Encoding: 15 15 187
Width: 360
Flags: HW
LayerCount: 2
Fore
SplineSet
310 0 m 1
 50 0 l 1
 50 800 l 1
 310 800 l 1
 310 0 l 1
190 401 m 1
 290 40 l 1
 290 762 l 1
 190 401 l 1
169 401 m 1
 70 762 l 1
 70 40 l 1
 169 401 l 1
180 362 m 1
 86 20 l 1
 274 20 l 1
 180 362 l 1
86 780 m 1
 180 440 l 1
 273 780 l 1
 86 780 l 1
EndSplineSet
EndChar

StartChar: uni0010
Encoding: 16 16 188
Width: 360
Flags: HW
LayerCount: 2
Fore
SplineSet
310 0 m 1
 50 0 l 1
 50 800 l 1
 310 800 l 1
 310 0 l 1
190 401 m 1
 290 40 l 1
 290 762 l 1
 190 401 l 1
169 401 m 1
 70 762 l 1
 70 40 l 1
 169 401 l 1
180 362 m 1
 86 20 l 1
 274 20 l 1
 180 362 l 1
86 780 m 1
 180 440 l 1
 273 780 l 1
 86 780 l 1
EndSplineSet
EndChar

StartChar: uni0011
Encoding: 17 17 189
Width: 360
Flags: HW
LayerCount: 2
Fore
SplineSet
310 0 m 1
 50 0 l 1
 50 800 l 1
 310 800 l 1
 310 0 l 1
190 401 m 1
 290 40 l 1
 290 762 l 1
 190 401 l 1
169 401 m 1
 70 762 l 1
 70 40 l 1
 169 401 l 1
180 362 m 1
 86 20 l 1
 274 20 l 1
 180 362 l 1
86 780 m 1
 180 440 l 1
 273 780 l 1
 86 780 l 1
EndSplineSet
EndChar

StartChar: uni0012
Encoding: 18 18 190
Width: 360
Flags: HW
LayerCount: 2
Fore
SplineSet
310 0 m 1
 50 0 l 1
 50 800 l 1
 310 800 l 1
 310 0 l 1
190 401 m 1
 290 40 l 1
 290 762 l 1
 190 401 l 1
169 401 m 1
 70 762 l 1
 70 40 l 1
 169 401 l 1
180 362 m 1
 86 20 l 1
 274 20 l 1
 180 362 l 1
86 780 m 1
 180 440 l 1
 273 780 l 1
 86 780 l 1
EndSplineSet
EndChar

StartChar: uni0013
Encoding: 19 19 191
Width: 360
Flags: HW
LayerCount: 2
Fore
SplineSet
310 0 m 1
 50 0 l 1
 50 800 l 1
 310 800 l 1
 310 0 l 1
190 401 m 1
 290 40 l 1
 290 762 l 1
 190 401 l 1
169 401 m 1
 70 762 l 1
 70 40 l 1
 169 401 l 1
180 362 m 1
 86 20 l 1
 274 20 l 1
 180 362 l 1
86 780 m 1
 180 440 l 1
 273 780 l 1
 86 780 l 1
EndSplineSet
EndChar

StartChar: uni0014
Encoding: 20 20 192
Width: 360
Flags: HW
LayerCount: 2
Fore
SplineSet
310 0 m 1
 50 0 l 1
 50 800 l 1
 310 800 l 1
 310 0 l 1
190 401 m 1
 290 40 l 1
 290 762 l 1
 190 401 l 1
169 401 m 1
 70 762 l 1
 70 40 l 1
 169 401 l 1
180 362 m 1
 86 20 l 1
 274 20 l 1
 180 362 l 1
86 780 m 1
 180 440 l 1
 273 780 l 1
 86 780 l 1
EndSplineSet
EndChar

StartChar: uni0015
Encoding: 21 21 193
Width: 360
Flags: HW
LayerCount: 2
Fore
SplineSet
310 0 m 1
 50 0 l 1
 50 800 l 1
 310 800 l 1
 310 0 l 1
190 401 m 1
 290 40 l 1
 290 762 l 1
 190 401 l 1
169 401 m 1
 70 762 l 1
 70 40 l 1
 169 401 l 1
180 362 m 1
 86 20 l 1
 274 20 l 1
 180 362 l 1
86 780 m 1
 180 440 l 1
 273 780 l 1
 86 780 l 1
EndSplineSet
EndChar

StartChar: uni0016
Encoding: 22 22 194
Width: 360
Flags: HW
LayerCount: 2
Fore
SplineSet
310 0 m 1
 50 0 l 1
 50 800 l 1
 310 800 l 1
 310 0 l 1
190 401 m 1
 290 40 l 1
 290 762 l 1
 190 401 l 1
169 401 m 1
 70 762 l 1
 70 40 l 1
 169 401 l 1
180 362 m 1
 86 20 l 1
 274 20 l 1
 180 362 l 1
86 780 m 1
 180 440 l 1
 273 780 l 1
 86 780 l 1
EndSplineSet
EndChar

StartChar: uni0017
Encoding: 23 23 195
Width: 360
Flags: HW
LayerCount: 2
Fore
SplineSet
310 0 m 1
 50 0 l 1
 50 800 l 1
 310 800 l 1
 310 0 l 1
190 401 m 1
 290 40 l 1
 290 762 l 1
 190 401 l 1
169 401 m 1
 70 762 l 1
 70 40 l 1
 169 401 l 1
180 362 m 1
 86 20 l 1
 274 20 l 1
 180 362 l 1
86 780 m 1
 180 440 l 1
 273 780 l 1
 86 780 l 1
EndSplineSet
EndChar

StartChar: uni0018
Encoding: 24 24 196
Width: 360
Flags: HW
LayerCount: 2
Fore
SplineSet
310 0 m 1
 50 0 l 1
 50 800 l 1
 310 800 l 1
 310 0 l 1
190 401 m 1
 290 40 l 1
 290 762 l 1
 190 401 l 1
169 401 m 1
 70 762 l 1
 70 40 l 1
 169 401 l 1
180 362 m 1
 86 20 l 1
 274 20 l 1
 180 362 l 1
86 780 m 1
 180 440 l 1
 273 780 l 1
 86 780 l 1
EndSplineSet
EndChar

StartChar: uni0019
Encoding: 25 25 197
Width: 360
Flags: HW
LayerCount: 2
Fore
SplineSet
310 0 m 1
 50 0 l 1
 50 800 l 1
 310 800 l 1
 310 0 l 1
190 401 m 1
 290 40 l 1
 290 762 l 1
 190 401 l 1
169 401 m 1
 70 762 l 1
 70 40 l 1
 169 401 l 1
180 362 m 1
 86 20 l 1
 274 20 l 1
 180 362 l 1
86 780 m 1
 180 440 l 1
 273 780 l 1
 86 780 l 1
EndSplineSet
EndChar

StartChar: uni001A
Encoding: 26 26 198
Width: 360
Flags: HW
LayerCount: 2
Fore
SplineSet
310 0 m 1
 50 0 l 1
 50 800 l 1
 310 800 l 1
 310 0 l 1
190 401 m 1
 290 40 l 1
 290 762 l 1
 190 401 l 1
169 401 m 1
 70 762 l 1
 70 40 l 1
 169 401 l 1
180 362 m 1
 86 20 l 1
 274 20 l 1
 180 362 l 1
86 780 m 1
 180 440 l 1
 273 780 l 1
 86 780 l 1
EndSplineSet
EndChar

StartChar: uni001B
Encoding: 27 27 199
Width: 360
Flags: HW
LayerCount: 2
Fore
SplineSet
310 0 m 1
 50 0 l 1
 50 800 l 1
 310 800 l 1
 310 0 l 1
190 401 m 1
 290 40 l 1
 290 762 l 1
 190 401 l 1
169 401 m 1
 70 762 l 1
 70 40 l 1
 169 401 l 1
180 362 m 1
 86 20 l 1
 274 20 l 1
 180 362 l 1
86 780 m 1
 180 440 l 1
 273 780 l 1
 86 780 l 1
EndSplineSet
EndChar

StartChar: uni001C
Encoding: 28 28 200
Width: 360
Flags: HW
LayerCount: 2
Fore
SplineSet
310 0 m 1
 50 0 l 1
 50 800 l 1
 310 800 l 1
 310 0 l 1
190 401 m 1
 290 40 l 1
 290 762 l 1
 190 401 l 1
169 401 m 1
 70 762 l 1
 70 40 l 1
 169 401 l 1
180 362 m 1
 86 20 l 1
 274 20 l 1
 180 362 l 1
86 780 m 1
 180 440 l 1
 273 780 l 1
 86 780 l 1
EndSplineSet
EndChar

StartChar: uni001E
Encoding: 30 30 202
Width: 360
Flags: HW
LayerCount: 2
Fore
SplineSet
310 0 m 1
 50 0 l 1
 50 800 l 1
 310 800 l 1
 310 0 l 1
190 401 m 1
 290 40 l 1
 290 762 l 1
 190 401 l 1
169 401 m 1
 70 762 l 1
 70 40 l 1
 169 401 l 1
180 362 m 1
 86 20 l 1
 274 20 l 1
 180 362 l 1
86 780 m 1
 180 440 l 1
 273 780 l 1
 86 780 l 1
EndSplineSet
EndChar

StartChar: uni001F
Encoding: 31 31 203
Width: 360
Flags: HW
LayerCount: 2
Fore
SplineSet
310 0 m 1
 50 0 l 1
 50 800 l 1
 310 800 l 1
 310 0 l 1
190 401 m 1
 290 40 l 1
 290 762 l 1
 190 401 l 1
169 401 m 1
 70 762 l 1
 70 40 l 1
 169 401 l 1
180 362 m 1
 86 20 l 1
 274 20 l 1
 180 362 l 1
86 780 m 1
 180 440 l 1
 273 780 l 1
 86 780 l 1
EndSplineSet
EndChar

StartChar: uni042D
Encoding: 1069 1069 205
Width: 245
Flags: HW
LayerCount: 2
Fore
SplineSet
150.5 491 m 2
 157.5 480 l 1
 157.5 787 l 2
 157.5 798 146.5 803 135.5 803 c 0
 123.5 803 112.5 798 112.5 787 c 2
 112.5 595 l 1
 142.5 595 l 1
 142.5 585 l 1
 17.5 585 l 1
 17.5 595 l 1
 47.5 595 l 1
 47.5 727 l 2
 47.5 774 88.5 812 135.5 812 c 0
 183.5 812 222.5 774 222.5 727 c 2
 222.5 287 l 2
 222.5 250 213.5 228 200.5 205 c 0
 186.5 178 153.5 149 130.5 109 c 0
 120.5 91 117.5 73 115.5 55 c 0
 116.5 46 121.5 24 135.5 8 c 0
 143.5 2 152.5 -2 161.5 -2 c 0
 167.5 -2 173.5 0 179.5 3 c 0
 183.5 9 184.5 12 184.5 18 c 0
 184.5 34 177.5 47 169.5 61 c 0
 158.5 79 154.5 91 154.5 106 c 0
 154.5 121 160.5 138 179.5 138 c 0
 213.5 138 227.5 102 227.5 76 c 0
 227.5 39 198.5 -12 161.5 -12 c 0
 115.5 -12 85.5 60 69.5 114 c 0
 46.5 196 44.5 294 43.5 345 c 1
 17.5 345 l 1
 17.5 355 l 1
 142.5 355 l 1
 142.5 345 l 1
 112.5 345 l 1
 112.5 93 l 2
 114.5 100 117.5 107 121.5 115 c 0
 128.5 128 132.5 140 139.5 156 c 0
 151.5 184 157.5 218 157.5 260 c 2
 157.5 460 l 1
 147.5 476 l 2
 142.5 484 133.5 494 126.5 494 c 0
 115.5 494 112.5 485 112.5 474 c 2
 112.5 435 l 1
 45.5 435 l 1
 45.5 458 l 2
 45.5 505 76.5 519 97.5 519 c 0
 116.5 519 135.5 512 150.5 491 c 2
EndSplineSet
EndChar

StartChar: uni042F
Encoding: 1071 1071 206
Width: 360
Flags: HW
LayerCount: 2
Fore
SplineSet
310 0 m 1
 50 0 l 1
 50 800 l 1
 310 800 l 1
 310 0 l 1
190 401 m 1
 290 40 l 1
 290 762 l 1
 190 401 l 1
169 401 m 1
 70 762 l 1
 70 40 l 1
 169 401 l 1
180 362 m 1
 86 20 l 1
 274 20 l 1
 180 362 l 1
86 780 m 1
 180 440 l 1
 273 780 l 1
 86 780 l 1
EndSplineSet
EndChar

StartChar: uni0443
Encoding: 1091 1091 207
Width: 236
Flags: HW
LayerCount: 2
Fore
SplineSet
160 0 m 1
 160 10 l 1
 118 10 l 1
 152 644 l 2
 156 721 175 741 194 741 c 2
 224 741 l 1
 224 806 l 1
 198 806 l 2
 161 806 147 761 145 715 c 2
 125 346 l 1
 97 790 l 1
 130 790 l 1
 130 800 l 1
 5 800 l 1
 5 790 l 1
 32 790 l 1
 61 332 l 1
 125 332 l 1
 108 10 l 1
 65 10 l 1
 65 0 l 1
 160 0 l 1
EndSplineSet
EndChar

StartChar: uni044F
Encoding: 1103 1103 209
Width: 360
Flags: HW
LayerCount: 2
Fore
SplineSet
310 0 m 1
 50 0 l 1
 50 800 l 1
 310 800 l 1
 310 0 l 1
190 401 m 1
 290 40 l 1
 290 762 l 1
 190 401 l 1
169 401 m 1
 70 762 l 1
 70 40 l 1
 169 401 l 1
180 362 m 1
 86 20 l 1
 274 20 l 1
 180 362 l 1
86 780 m 1
 180 440 l 1
 273 780 l 1
 86 780 l 1
EndSplineSet
EndChar

StartChar: uni0450
Encoding: 1104 1104 210
Width: 245
Flags: HW
LayerCount: 2
Fore
SplineSet
107 491 m 2
 100 480 l 1
 100 787 l 2
 100 798 111 803 122 803 c 0
 134 803 145 798 145 787 c 2
 145 595 l 1
 115 595 l 1
 115 585 l 1
 240 585 l 1
 240 595 l 1
 210 595 l 1
 210 727 l 2
 210 774 169 812 122 812 c 0
 74 812 35 774 35 727 c 2
 35 287 l 2
 35 250 44 228 57 205 c 0
 71 178 104 149 127 109 c 0
 137 91 140 73 142 55 c 0
 141 46 136 24 122 8 c 0
 114 2 105 -2 96 -2 c 0
 90 -2 84 0 78 3 c 0
 74 9 73 12 73 18 c 0
 73 34 80 47 88 61 c 0
 99 79 103 91 103 106 c 0
 103 121 97 138 78 138 c 0
 44 138 30 102 30 76 c 0
 30 39 59 -12 96 -12 c 0
 142 -12 172 60 188 114 c 0
 211 196 213 294 214 345 c 1
 240 345 l 1
 240 355 l 1
 115 355 l 1
 115 345 l 1
 145 345 l 1
 145 93 l 2
 143 100 140 107 136 115 c 0
 129 128 125 140 118 156 c 0
 106 184 100 218 100 260 c 2
 100 460 l 1
 110 476 l 2
 115 484 124 494 131 494 c 0
 142 494 145 485 145 474 c 2
 145 435 l 1
 212 435 l 1
 212 458 l 2
 212 505 181 519 160 519 c 0
 141 519 122 512 107 491 c 2
65 930 m 1
 65 909 l 1
 190 859 l 1
 190 880 l 1
 65 930 l 1
EndSplineSet
EndChar

StartChar: uni0464
Encoding: 1124 1124 212
Width: 360
Flags: HW
LayerCount: 2
Fore
SplineSet
310 0 m 1
 50 0 l 1
 50 800 l 1
 310 800 l 1
 310 0 l 1
190 401 m 1
 290 40 l 1
 290 762 l 1
 190 401 l 1
169 401 m 1
 70 762 l 1
 70 40 l 1
 169 401 l 1
180 362 m 1
 86 20 l 1
 274 20 l 1
 180 362 l 1
86 780 m 1
 180 440 l 1
 273 780 l 1
 86 780 l 1
EndSplineSet
EndChar

StartChar: uni0465
Encoding: 1125 1125 213
Width: 360
Flags: HW
LayerCount: 2
Fore
SplineSet
310 0 m 1
 50 0 l 1
 50 800 l 1
 310 800 l 1
 310 0 l 1
190 401 m 1
 290 40 l 1
 290 762 l 1
 190 401 l 1
169 401 m 1
 70 762 l 1
 70 40 l 1
 169 401 l 1
180 362 m 1
 86 20 l 1
 274 20 l 1
 180 362 l 1
86 780 m 1
 180 440 l 1
 273 780 l 1
 86 780 l 1
EndSplineSet
EndChar

StartChar: uniA64C
Encoding: 42572 42572 214
Width: 355
Flags: HW
LayerCount: 2
Fore
SplineSet
210 82 m 2
 210 637 l 1
 230 637 l 1
 230 647 l 1
 125 647 l 1
 125 637 l 1
 145 637 l 1
 145 82 l 2
 145 33 113 -3 97 -3 c 0
 78 -3 77 16 77 34 c 0
 77 68 96 121 100 151 c 1
 100 767 l 2
 100 784 108 788 117 788 c 0
 127 788 134 780 134 766 c 2
 134 741 l 2
 134 734 144 734 144 741 c 2
 144 758 l 2
 144 786 132 812 93 812 c 0
 52 812 35 774 35 727 c 2
 35 73 l 2
 35 26 51 -12 99 -12 c 0
 115 -12 141 4 159 38 c 0
 165 50 170 64 174 73 c 2
 177 76 l 2
 177 75 180 74 181 73 c 0
 185 64 190 50 196 38 c 0
 214 4 240 -12 256 -12 c 0
 304 -12 320 26 320 73 c 2
 320 727 l 2
 320 774 303 812 262 812 c 0
 223 812 211 785 211 758 c 2
 211 741 l 2
 211 734 221 734 221 741 c 2
 221 766 l 2
 221 780 228 788 238 788 c 0
 247 788 255 784 255 767 c 2
 255 151 l 1
 259 121 278 68 278 34 c 0
 278 16 277 -3 258 -3 c 0
 242 -3 210 32 210 82 c 2
EndSplineSet
EndChar

StartChar: uniA64D
Encoding: 42573 42573 215
Width: 355
Flags: HW
LayerCount: 2
Fore
SplineSet
210 82 m 2
 210 637 l 1
 230 637 l 1
 230 647 l 1
 125 647 l 1
 125 637 l 1
 145 637 l 1
 145 82 l 2
 145 33 113 -3 97 -3 c 0
 78 -3 77 16 77 34 c 0
 77 68 96 121 100 151 c 1
 100 767 l 2
 100 784 108 788 117 788 c 0
 127 788 134 780 134 766 c 2
 134 741 l 2
 134 734 144 734 144 741 c 2
 144 758 l 2
 144 786 132 812 93 812 c 0
 52 812 35 774 35 727 c 2
 35 73 l 2
 35 26 51 -12 99 -12 c 0
 115 -12 141 4 159 38 c 0
 165 50 170 64 174 73 c 2
 177 76 l 2
 177 75 180 74 181 73 c 0
 185 64 190 50 196 38 c 0
 214 4 240 -12 256 -12 c 0
 304 -12 320 26 320 73 c 2
 320 727 l 2
 320 774 303 812 262 812 c 0
 223 812 211 785 211 758 c 2
 211 741 l 2
 211 734 221 734 221 741 c 2
 221 766 l 2
 221 780 228 788 238 788 c 0
 247 788 255 784 255 767 c 2
 255 151 l 1
 259 121 278 68 278 34 c 0
 278 16 277 -3 258 -3 c 0
 242 -3 210 32 210 82 c 2
EndSplineSet
EndChar

StartChar: uniA67C
Encoding: 42620 42620 216
Width: 0
Flags: HW
LayerCount: 2
Fore
SplineSet
-119 705 m 0
 -177 705 -216 727 -216 775 c 2
 -216 800 l 1
 -151 800 l 1
 -151 775 l 2
 -151 747 -146 725 -119 725 c 0
 -91 725 -86 747 -86 775 c 2
 -86 800 l 1
 -22 800 l 1
 -22 775 l 2
 -22 727 -61 705 -119 705 c 0
EndSplineSet
EndChar

StartChar: uni0306
Encoding: 774 774 217
Width: 0
Flags: HW
LayerCount: 2
Fore
SplineSet
-135 807 m 0
 -102 807 -75 838 -75 864 c 2
 -75 872 l 1
 -118 872 l 1
 -118 826 l 2
 -118 817 -127 815 -135 815 c 0
 -143 815 -152 817 -152 826 c 2
 -152 872 l 1
 -195 872 l 1
 -195 864 l 2
 -195 838 -168 807 -135 807 c 0
EndSplineSet
EndChar

StartChar: uni0308
Encoding: 776 776 218
Width: 0
Flags: HW
LayerCount: 2
Fore
SplineSet
-166 870 m 1
 -212 947 l 1
 -253 947 l 1
 -253 941 l 1
 -207 864 l 1
 -166 864 l 1
 -166 870 l 1
-70 870 m 1
 -116 947 l 1
 -157 947 l 1
 -157 941 l 1
 -111 864 l 1
 -70 864 l 1
 -70 870 l 1
EndSplineSet
EndChar

StartChar: uni030F
Encoding: 783 783 219
Width: 0
Flags: HW
LayerCount: 2
Fore
SplineSet
-157 844 m 1
 -203 921 l 1
 -244 921 l 1
 -244 915 l 1
 -198 838 l 1
 -157 838 l 1
 -157 844 l 1
-61 844 m 1
 -107 921 l 1
 -148 921 l 1
 -148 915 l 1
 -102 838 l 1
 -61 838 l 1
 -61 844 l 1
EndSplineSet
EndChar

StartChar: uni0487
Encoding: 1159 1159 220
Width: 1
Flags: HW
LayerCount: 2
Fore
SplineSet
-228 884 m 2
 -230 887 -233 894 -233 901 c 0
 -233 911 -227 929 -221 940 c 0
 -215 947 -212 951 -204 955 c 0
 -165 974 -137 983 -101 990 c 0
 -96 991 -89 991 -86 988 c 0
 -47 957 34 899 59 884 c 0
 61 879 61 875 61 870 c 1
 7 870 l 1
 -24 888 -77 932 -113 956 c 0
 -122 959 -134 960 -146 960 c 0
 -159 960 -176 953 -182 945 c 0
 -185 938 -185 932 -185 924 c 0
 -185 912 -182 902 -182 894 c 2
 -182 890 l 1
 -228 884 l 2
EndSplineSet
EndChar

StartChar: uni2DE10487
Encoding: 62689 62689 221
Width: 1
Flags: HW
LayerCount: 2
Fore
SplineSet
-74 840 m 2
 -176 840 l 2
 -182 840 -182 852 -176 852 c 2
 -172 852 l 1
 -170 858 -169 873 -168 885 c 0
 -167 897 -167 913 -167 921 c 1
 -174 921 l 2
 -180 921 -181 933 -174 933 c 2
 -89 933 l 2
 -83 933 -83 921 -89 921 c 2
 -95 921 l 1
 -95 913 -95 897 -92 882 c 0
 -91 870 -87 858 -86 852 c 1
 -74 852 l 2
 -70 852 -69 840 -74 840 c 2
-121 852 m 1
 -122 858 -124 869 -124 878 c 0
 -124 894 -125 913 -125 921 c 1
 -136 921 l 1
 -136 913 -136 896 -137 882 c 0
 -137 873 -137 857 -137 852 c 1
 -121 852 l 1
-229 884 m 2
 -230 887 -233 894 -233 901 c 0
 -233 912 -227 930 -221 940 c 0
 -216 947 -212 951 -205 955 c 0
 -166 975 -137 984 -102 990 c 0
 -97 991 -90 991 -86 988 c 0
 -47 957 34 899 59 885 c 1
 61 879 61 876 60 870 c 1
 7 870 l 1
 -25 888 -77 932 -113 956 c 0
 -122 959 -134 960 -147 960 c 0
 -160 960 -176 953 -183 945 c 0
 -186 938 -186 933 -186 924 c 0
 -186 912 -182 902 -182 894 c 2
 -182 891 l 1
 -229 884 l 2
EndSplineSet
EndChar

StartChar: uni2DE20487
Encoding: 62690 62690 222
Width: 1
Flags: HW
LayerCount: 2
Fore
SplineSet
-89 920 m 1
 -98 905 l 1
 -107 905 l 1
 -120 920 l 1
 -137 920 l 1
 -137 840 l 1
 -170 840 l 1
 -170 932 l 1
 -89 932 l 1
 -89 920 l 1
-228 884 m 2
 -230 887 -233 894 -233 901 c 0
 -233 911 -227 929 -221 940 c 0
 -215 947 -212 951 -204 955 c 0
 -165 974 -137 983 -101 990 c 0
 -96 991 -89 991 -86 988 c 0
 -47 957 34 899 59 884 c 0
 61 879 61 875 61 870 c 1
 7 870 l 1
 -24 888 -77 932 -113 956 c 0
 -122 959 -134 960 -146 960 c 0
 -159 960 -176 953 -182 945 c 0
 -185 938 -185 932 -185 924 c 0
 -185 912 -182 902 -182 894 c 2
 -182 890 l 1
 -228 884 l 2
EndSplineSet
EndChar

StartChar: uni2DE90487
Encoding: 62697 62697 223
Width: 1
Flags: HW
LayerCount: 2
Fore
SplineSet
-177 926 m 1
 -177 840 l 1
 -142 840 l 1
 -142 878 l 1
 -117 878 l 1
 -117 840 l 1
 -85 840 l 1
 -85 927 l 1
 -117 927 l 1
 -117 893 l 1
 -142 893 l 1
 -142 926 l 1
 -177 926 l 1
-232 884 m 2
 -234 887 -237 894 -237 900 c 0
 -237 911 -231 929 -225 939 c 0
 -219 947 -216 951 -208 954 c 0
 -169 974 -141 983 -105 990 c 0
 -100 990 -93 990 -90 987 c 0
 -51 957 30 899 55 884 c 0
 57 879 57 875 57 870 c 1
 3 870 l 1
 -28 888 -81 932 -117 956 c 0
 -126 959 -138 960 -150 960 c 0
 -163 960 -180 953 -186 945 c 0
 -189 938 -189 932 -189 924 c 0
 -189 912 -186 902 -186 894 c 2
 -186 890 l 1
 -232 884 l 2
EndSplineSet
EndChar

StartChar: uni2DEA0487
Encoding: 62698 62698 224
Width: 1
Flags: HW
LayerCount: 2
Fore
SplineSet
-133 852 m 0
 -124 852 -115 861 -115 876 c 2
 -115 897 l 2
 -115 909 -124 921 -133 921 c 0
 -145 921 -151 909 -151 897 c 2
 -151 876 l 2
 -151 861 -145 852 -133 852 c 0
-133 933 m 0
 -106 933 -82 915 -82 885 c 0
 -82 855 -103 840 -133 840 c 0
 -164 840 -187 855 -187 885 c 0
 -187 915 -163 933 -133 933 c 0
-245 885 m 2
 -247 888 -250 894 -250 901 c 0
 -250 912 -244 930 -238 940 c 0
 -232 948 -229 951 -221 955 c 0
 -182 975 -154 984 -118 990 c 0
 -113 991 -106 991 -103 988 c 0
 -64 957 17 900 42 885 c 1
 44 879 44 876 44 870 c 1
 -10 870 l 1
 -41 888 -94 933 -130 957 c 0
 -139 960 -151 960 -163 960 c 0
 -176 960 -193 954 -199 945 c 0
 -202 939 -202 933 -202 924 c 0
 -202 912 -199 903 -199 894 c 2
 -199 891 l 1
 -245 885 l 2
EndSplineSet
EndChar

StartChar: uni2DEC0487
Encoding: 62700 62700 225
Width: 1
Flags: HW
LayerCount: 2
Fore
SplineSet
-231 838 m 2
 -229 843 -228 847 -228 857 c 0
 -228 872 -228 888 -228 899 c 0
 -228 914 -202 933 -177 933 c 0
 -153 933 -127 917 -127 900 c 0
 -127 884 -141 875 -168 875 c 0
 -174 875 -190 877 -195 882 c 1
 -195 852 l 2
 -195 843 -231 838 -231 838 c 2
-193 903 m 0
 -193 897 -187 887 -177 887 c 0
 -168 887 -159 894 -159 904 c 0
 -159 911 -166 920 -177 920 c 0
 -189 920 -193 912 -193 903 c 0
-288 884 m 2
 -289 887 -292 894 -292 901 c 0
 -292 912 -286 930 -279 940 c 0
 -276 947 -271 951 -264 955 c 0
 -225 975 -195 984 -162 990 c 0
 -156 991 -150 991 -145 988 c 0
 -105 957 -24 899 0 885 c 1
 2 879 2 876 0 870 c 1
 -52 870 l 1
 -84 888 -135 932 -172 956 c 0
 -181 959 -193 960 -207 960 c 0
 -219 960 -235 953 -243 945 c 0
 -246 938 -246 933 -246 924 c 0
 -246 912 -240 902 -240 894 c 2
 -240 891 l 1
 -288 884 l 2
EndSplineSet
EndChar

StartChar: uni2DED0487
Encoding: 62701 62701 226
Width: 1
Flags: HW
LayerCount: 2
Fore
SplineSet
-137 857 m 1
 -137 866 -139 876 -139 888 c 0
 -139 905 -132 915 -111 912 c 1
 -111 917 -111 926 -111 929 c 1
 -112 929 -123 931 -128 930 c 0
 -145 929 -171 919 -171 896 c 0
 -171 882 -167 871 -167 857 c 0
 -167 852 -167 846 -167 842 c 0
 -167 839 -167 837 -164 837 c 0
 -157 837 -145 837 -136 838 c 0
 -126 840 -113 846 -109 854 c 0
 -108 854 -111 865 -114 864 c 0
 -122 858 -127 856 -137 857 c 1
-241 883 m 2
 -193 888 l 1
 -193 892 l 2
 -193 901 -198 910 -198 923 c 0
 -198 930 -198 937 -194 945 c 0
 -187 952 -171 960 -158 960 c 0
 -145 960 -133 959 -124 956 c 0
 -87 931 -35 887 -2 869 c 1
 52 869 l 1
 53 873 53 877 50 882 c 0
 26 898 -56 956 -96 987 c 0
 -100 990 -107 990 -112 990 c 0
 -148 983 -177 973 -217 954 c 0
 -224 950 -228 947 -232 939 c 0
 -240 928 -245 910 -245 899 c 0
 -245 892 -243 886 -241 883 c 2
EndSplineSet
EndChar

StartChar: uni2DF10487
Encoding: 62705 62705 227
Width: 1
Flags: HW
LayerCount: 2
Fore
SplineSet
-185 926 m 1
 -185 899 -170 888 -154 882 c 0
 -136 875 -125 876 -125 876 c 1
 -125 840 l 1
 -92 840 l 1
 -92 927 l 1
 -125 927 l 1
 -125 893 l 1
 -125 893 -136 891 -143 897 c 0
 -149 903 -151 917 -149 926 c 1
 -185 926 l 1
-239 884 m 2
 -241 887 -244 894 -244 900 c 0
 -244 911 -238 929 -232 939 c 0
 -227 947 -223 951 -215 954 c 0
 -176 974 -148 983 -113 990 c 0
 -107 990 -101 990 -97 987 c 0
 -58 957 23 899 48 884 c 0
 50 879 50 875 49 870 c 1
 -4 870 l 1
 -35 888 -88 932 -124 956 c 0
 -133 959 -145 960 -158 960 c 0
 -170 960 -187 953 -194 945 c 0
 -197 938 -197 932 -197 924 c 0
 -197 912 -193 902 -193 894 c 2
 -193 890 l 1
 -239 884 l 2
EndSplineSet
EndChar

StartChar: uniA673
Encoding: 42611 42611 228
Width: 249
Flags: HW
LayerCount: 2
Fore
SplineSet
235 702 m 1
 175 723 l 1
 204 780 l 1
 146 752 l 1
 124 812 l 1
 103 752 l 1
 45 780 l 1
 72 723 l 1
 13 702 l 1
 73 680 l 1
 46 622 l 1
 103 650 l 1
 124 590 l 1
 146 650 l 1
 204 622 l 1
 175 680 l 1
 235 702 l 1
206 702 m 1
 162 685 l 1
 183 643 l 1
 140 663 l 1
 124 620 l 1
 108 663 l 1
 66 643 l 1
 87 685 l 1
 43 702 l 1
 86 717 l 1
 66 759 l 1
 108 739 l 1
 124 783 l 1
 140 740 l 1
 183 760 l 1
 162 717 l 1
 206 702 l 1
EndSplineSet
EndChar

